<svg width="270" height="272" viewBox="0 0 270 272" fill="none" xmlns="http://www.w3.org/2000/svg">
<line x1="113.386" y1="106.05" x2="163.93" y2="106.04" stroke="#5452F6" stroke-width="1.04223"/>
<path d="M158.718 101.298L164.19 106.247L158.72 110.938" stroke="#5452F6" stroke-width="1.04223" stroke-linecap="round" stroke-linejoin="round"/>
<circle cx="111.041" cy="106.311" r="2.86614" stroke="#5452F6" stroke-width="1.04223"/>
<path d="M267.832 107.3L297.114 107.294C308.626 107.291 317.957 97.9571 317.954 86.4449L317.949 59.8202" stroke="#5452F6" stroke-width="1.04223" stroke-linecap="round" stroke-linejoin="round"/>
<circle cx="265.488" cy="107.561" r="2.86614" transform="rotate(-90.0117 265.488 107.561)" fill="#5452F6"/>
<line x1="210.931" y1="24.1395" x2="272.73" y2="24.1269" stroke="#5452F6" stroke-width="1.04223" stroke-dasharray="2.61 4.17"/>
<path d="M267.518 18.7598L272.99 23.7093L267.52 28.4004" stroke="#5452F6" stroke-width="1.04223" stroke-linecap="round" stroke-linejoin="round"/>
<circle cx="208.586" cy="24.4007" r="2.86614" stroke="#5452F6" stroke-width="1.04223"/>
<path d="M147.621 213.237L147.617 196.397C147.616 190.641 152.282 185.974 158.038 185.972L271.733 185.949C277.489 185.948 282.156 190.613 282.158 196.369L282.161 213.209" stroke="#5452F6" stroke-width="1.04223"/>
<line x1="214.312" y1="185.713" x2="214.306" y2="157.052" stroke="#5452F6" stroke-width="1.04223"/>
<path d="M152.584 208.025L147.761 213.237L143.191 208.026" stroke="#5452F6" stroke-width="1.04223" stroke-linecap="round" stroke-linejoin="round"/>
<circle cx="214.045" cy="154.186" r="2.86614" stroke="#5452F6" stroke-width="1.04223"/>
<g filter="url(#filter0_b_5_919)">
<path fill-rule="evenodd" clip-rule="evenodd" d="M297.637 0C291.766 0 287.007 4.75915 287.007 10.6299V38.1425C287.007 44.0133 291.766 48.7724 297.637 48.7724H373.297C379.167 48.7724 383.926 44.0133 383.926 38.1425V10.6299C383.926 4.75916 379.167 0 373.297 0H297.637ZM10.6299 81.2873C4.75916 81.2873 0 86.0465 0 91.9172V119.43C0 125.301 4.75917 130.06 10.6299 130.06H86.2897C92.1604 130.06 96.9195 125.301 96.9195 119.43V91.9172C96.9195 86.0465 92.1604 81.2873 86.2896 81.2873H10.6299ZM147.568 223.228C134.1 223.228 123.182 234.146 123.182 247.614C123.182 261.082 134.1 272 147.568 272C161.036 272 171.954 261.082 171.954 247.614C171.954 234.146 161.036 223.228 147.568 223.228ZM258.244 247.614C258.244 234.146 269.162 223.228 282.63 223.228C296.098 223.228 307.016 234.146 307.016 247.614C307.016 261.082 296.098 272 282.63 272C269.162 272 258.244 261.082 258.244 247.614ZM123.182 19.3839C123.182 13.5132 127.941 8.754 133.811 8.754H185.71C191.581 8.754 196.34 13.5132 196.34 19.3839V27.5126C196.34 33.3833 191.581 38.1425 185.71 38.1425H133.811C127.941 38.1425 123.182 33.3833 123.182 27.5126V19.3839ZM216.331 71.1114C214.703 69.4837 212.063 69.4842 210.435 71.1126L178.036 103.526C176.408 105.154 176.409 107.794 178.037 109.421L210.45 141.821C212.078 143.449 214.718 143.448 216.346 141.82L248.745 109.407C250.373 107.778 250.373 105.139 248.744 103.511L216.331 71.1114Z" fill="url(#paint0_radial_5_919)"/>
</g>
<path d="M46.8987 71.9081L46.8986 44.302C46.8985 32.7914 56.2284 23.4596 67.739 23.4572L108.124 23.4489" stroke="#5452F6" stroke-width="1.04223" stroke-linecap="round" stroke-linejoin="round"/>
<path d="M108.729 23.8457L104.567 27.6228C104.232 27.9267 103.696 27.6892 103.696 27.237L103.694 19.8927C103.694 19.4474 104.216 19.2071 104.554 19.4968L108.718 23.0641C108.956 23.2682 108.961 23.6349 108.729 23.8457Z" fill="#5452F6"/>
<circle r="2.86614" transform="matrix(1 -0.000204516 -0.000204516 -1 46.6369 71.6483)" fill="#5452F6"/>
<path d="M36.4459 103.125V111.297H38.302V108.051H41.8743V106.347H38.302V104.829H42.5514V103.125H36.4459ZM45.0701 111.297V105.226H43.319V111.297H45.0701ZM43.4124 104.491C43.6225 104.689 43.8794 104.794 44.1946 104.794C44.5098 104.794 44.7666 104.689 44.965 104.491C45.1752 104.292 45.2803 104.035 45.2803 103.72C45.2803 103.405 45.1752 103.148 44.965 102.95C44.7666 102.751 44.5098 102.646 44.1946 102.646C43.8794 102.646 43.6225 102.751 43.4124 102.95C43.2139 103.148 43.1089 103.405 43.1089 103.72C43.1089 104.035 43.2139 104.292 43.4124 104.491ZM47.8062 105.226H46.0551V111.297H47.8062V108.028C47.8062 107.316 48.3316 106.779 49.032 106.779C49.2888 106.779 49.499 106.837 49.6624 106.942V105.074C48.8336 105.074 48.2148 105.331 47.8062 105.856V105.226ZM54.9677 106.732C54.8159 105.693 53.952 105.074 52.5395 105.074C51.0568 105.074 50.0762 105.681 50.0762 107.024C50.0762 107.923 50.5432 108.46 51.6756 108.775L52.7846 109.102C53.1932 109.219 53.3917 109.37 53.3917 109.569C53.3917 109.849 53.0648 110.012 52.5978 110.012C52.0258 110.012 51.6756 109.814 51.5588 109.405L49.9478 109.627C50.1229 110.783 51.0335 111.448 52.5628 111.448C54.0688 111.448 55.0611 110.771 55.0611 109.499C55.0611 108.577 54.5591 108.016 53.3333 107.631L52.2476 107.281C51.9324 107.164 51.769 107.024 51.769 106.872C51.769 106.604 52.0024 106.475 52.4577 106.475C52.9597 106.475 53.2632 106.65 53.3683 106.989L54.9677 106.732ZM55.4284 106.744H56.2573V109.359C56.2573 109.907 56.4558 110.374 56.8643 110.748C57.2729 111.11 57.7866 111.297 58.382 111.297H59.386V109.662H58.6738C58.2886 109.662 58.0084 109.394 58.0084 109.02V106.744H59.386V105.226H58.0084V104.047H56.2573V105.226H55.4284V106.744ZM68.8219 104.888C68.6702 104.339 68.3316 103.884 67.7829 103.522C67.2459 103.16 66.6038 102.973 65.8684 102.973C65.0395 102.973 64.3624 103.206 63.8371 103.673C63.3234 104.129 63.0666 104.736 63.0666 105.483C63.0666 105.962 63.2183 106.382 63.3935 106.674C63.5686 106.966 63.9772 107.246 64.2223 107.421C64.3507 107.503 64.5375 107.584 64.7827 107.689L65.3547 107.899C65.4948 107.934 65.7049 108.005 65.9734 108.086L66.0902 108.121C66.5571 108.273 66.8373 108.366 67.1058 108.6C67.2459 108.717 67.316 108.845 67.316 108.997C67.316 109.429 66.779 109.744 66.1135 109.744C65.3781 109.744 64.8177 109.382 64.6893 108.915L62.8331 109.359C63.0082 109.977 63.3818 110.479 63.9772 110.865C64.5725 111.25 65.2847 111.448 66.1135 111.448C67.0124 111.448 67.7479 111.215 68.3199 110.736C68.892 110.258 69.1721 109.627 69.1721 108.833C69.1255 107.829 68.7285 107.257 68.0514 106.895C67.5845 106.615 67.3276 106.534 66.8256 106.382C66.1719 106.183 65.7633 106.055 65.5999 105.997C65.1446 105.81 64.9228 105.588 64.9228 105.343C64.9228 104.958 65.343 104.677 65.9034 104.677C66.4521 104.677 66.884 104.958 66.9891 105.319L68.8219 104.888ZM69.4624 106.744H70.2913V109.359C70.2913 109.907 70.4898 110.374 70.8984 110.748C71.307 111.11 71.8206 111.297 72.416 111.297H73.42V109.662H72.7079C72.3226 109.662 72.0424 109.394 72.0424 109.02V106.744H73.42V105.226H72.0424V104.047H70.2913V105.226H69.4624V106.744ZM80.333 108.892C80.3797 108.693 80.403 108.483 80.403 108.261C80.403 107.362 80.0995 106.604 79.4808 105.997C78.862 105.378 78.1032 105.074 77.1926 105.074C76.2704 105.074 75.5116 105.378 74.8928 105.997C74.2741 106.604 73.9706 107.362 73.9706 108.261C73.9706 109.172 74.2858 109.931 74.9162 110.538C75.5466 111.145 76.3404 111.448 77.286 111.448C78.5818 111.448 79.6442 110.818 80.1929 109.802L78.5001 109.417C78.1966 109.779 77.7997 109.954 77.2977 109.954C76.5856 109.954 76.0135 109.534 75.8151 108.892H80.333ZM75.8268 107.596C76.0252 106.977 76.5739 106.569 77.1926 106.569C77.8464 106.569 78.3951 106.977 78.6169 107.596H75.8268ZM82.8628 113.923V110.888C83.3648 111.262 83.9135 111.448 84.5322 111.448C85.3494 111.448 86.0381 111.145 86.5868 110.538C87.1355 109.919 87.4157 109.16 87.4157 108.261C87.4157 107.351 87.1355 106.592 86.5868 105.985C86.0381 105.378 85.3494 105.074 84.5322 105.074C83.9018 105.074 83.3414 105.261 82.8628 105.635V105.226H81.1117V113.923H82.8628ZM84.2403 106.802C84.9875 106.802 85.5829 107.432 85.5829 108.273C85.5829 108.682 85.4544 109.02 85.1859 109.3C84.9291 109.581 84.6139 109.721 84.2403 109.721C83.4815 109.721 82.8861 109.079 82.8861 108.273C82.8861 107.432 83.4815 106.802 84.2403 106.802Z" fill="white"/>
<path d="M152.099 20.622L151.375 20.8333C151.326 20.6166 151.186 20.435 150.953 20.2887C150.725 20.137 150.457 20.0611 150.148 20.0611C149.806 20.0611 149.525 20.1451 149.302 20.3131C149.08 20.4757 148.969 20.6816 148.969 20.9309C148.969 21.2018 149.121 21.4132 149.424 21.5649C149.663 21.6787 150.029 21.7979 150.522 21.9226C150.923 22.0255 151.234 22.1312 151.457 22.2396C151.977 22.4835 152.25 22.9089 152.278 23.5158C152.278 24.0252 152.082 24.4371 151.692 24.7514C151.313 25.0657 150.82 25.2228 150.213 25.2228C149.665 25.2228 149.199 25.0955 148.815 24.8408C148.43 24.5915 148.186 24.2664 148.083 23.8653L148.815 23.6459C148.858 23.8951 149.01 24.1038 149.27 24.2718C149.535 24.4344 149.85 24.5156 150.213 24.5156C150.592 24.5156 150.909 24.4289 151.164 24.2555C151.419 24.0767 151.546 23.8491 151.546 23.5727C151.546 23.2909 151.41 23.0796 151.139 22.9387C150.901 22.814 150.627 22.7138 150.318 22.6379L149.977 22.5485L149.66 22.4509L149.327 22.3371C149.311 22.3317 149.286 22.3236 149.254 22.3128C149.227 22.2965 149.191 22.2802 149.148 22.264C149.105 22.2423 149.067 22.2233 149.034 22.2071C148.899 22.142 148.739 22.0255 148.555 21.8575C148.37 21.6733 148.262 21.3807 148.229 20.9796C148.229 20.4973 148.408 20.1072 148.766 19.8091C149.129 19.5056 149.587 19.3539 150.14 19.3539C150.638 19.3539 151.064 19.4731 151.416 19.7116C151.774 19.9446 152.001 20.2481 152.099 20.622ZM157.344 23.2557H153.711C153.759 23.635 153.927 23.952 154.215 24.2067C154.496 24.456 154.843 24.5807 155.255 24.5807C155.792 24.5807 156.209 24.3775 156.507 23.971L157.173 24.1824C156.978 24.5075 156.71 24.7622 156.369 24.9465C156.033 25.1307 155.662 25.2228 155.255 25.2228C154.616 25.2228 154.079 25.0142 153.646 24.5969C153.217 24.1742 153.003 23.6486 153.003 23.02C153.003 22.3913 153.212 21.8684 153.629 21.4511C154.047 21.0284 154.564 20.8171 155.182 20.8171C155.805 20.8171 156.323 21.0284 156.735 21.4511C157.152 21.8684 157.36 22.3913 157.36 23.02C157.36 23.0362 157.355 23.1148 157.344 23.2557ZM153.719 22.7029H156.653C156.588 22.3398 156.418 22.0391 156.141 21.8006C155.87 21.5676 155.545 21.4511 155.166 21.4511C154.797 21.4511 154.48 21.5676 154.215 21.8006C153.949 22.0337 153.784 22.3344 153.719 22.7029ZM162.231 22.0933L161.548 22.2965C161.424 22.0526 161.242 21.8603 161.004 21.7194C160.771 21.573 160.508 21.4999 160.215 21.4999C159.787 21.4999 159.432 21.6462 159.15 21.9388C158.863 22.226 158.72 22.5864 158.72 23.02C158.72 23.4481 158.863 23.8111 159.15 24.1092C159.438 24.3964 159.793 24.54 160.215 24.54C160.508 24.54 160.771 24.4696 161.004 24.3287C161.242 24.1824 161.424 23.9873 161.548 23.7434L162.231 23.9466C162.058 24.3422 161.79 24.6538 161.427 24.8814C161.069 25.109 160.665 25.2228 160.215 25.2228C159.592 25.2228 159.066 25.0142 158.638 24.5969C158.221 24.1688 158.012 23.6432 158.012 23.02C158.012 22.3913 158.221 21.8684 158.638 21.4511C159.061 21.0284 159.587 20.8171 160.215 20.8171C160.665 20.8171 161.069 20.9309 161.427 21.1585C161.79 21.3861 162.058 21.6977 162.231 22.0933ZM163.504 24.5969C163.087 24.1688 162.879 23.6432 162.879 23.02C162.879 22.3913 163.087 21.8684 163.504 21.4511C163.927 21.0284 164.453 20.8171 165.081 20.8171C165.71 20.8171 166.236 21.0284 166.658 21.4511C167.081 21.8684 167.292 22.3913 167.292 23.02C167.292 23.6486 167.081 24.1742 166.658 24.5969C166.23 25.0142 165.705 25.2228 165.081 25.2228C164.458 25.2228 163.933 25.0142 163.504 24.5969ZM165.081 24.54C165.51 24.54 165.867 24.3964 166.154 24.1092C166.442 23.8111 166.585 23.4481 166.585 23.02C166.585 22.5864 166.442 22.226 166.154 21.9388C165.867 21.6462 165.51 21.4999 165.081 21.4999C164.653 21.4999 164.298 21.6462 164.017 21.9388C163.729 22.226 163.586 22.5864 163.586 23.02C163.586 23.4481 163.729 23.8111 164.017 24.1092C164.304 24.3964 164.659 24.54 165.081 24.54ZM168.226 25.1334V20.9065H168.909V21.6137C169.245 21.0826 169.746 20.8171 170.413 20.8171C170.901 20.8171 171.304 20.9769 171.624 21.2967C171.949 21.611 172.112 22.012 172.112 22.4997V25.1334H171.429V22.6785C171.429 22.3371 171.312 22.0499 171.079 21.8169C170.852 21.5839 170.567 21.4674 170.226 21.4674C169.857 21.4674 169.546 21.5866 169.291 21.825C169.036 22.0635 168.909 22.3534 168.909 22.6948V25.1334H168.226ZM175.113 20.8171C175.747 20.8171 176.261 21.0474 176.657 21.508V19.0369H177.34V25.1334H176.657V24.5319C176.261 24.9925 175.747 25.2228 175.113 25.2228C174.522 25.2228 174.026 25.0142 173.625 24.5969C173.229 24.1797 173.032 23.654 173.032 23.02C173.032 22.3859 173.229 21.863 173.625 21.4511C174.021 21.0284 174.516 20.8171 175.113 20.8171ZM175.186 21.4999C174.779 21.4999 174.435 21.6462 174.153 21.9388C173.877 22.226 173.739 22.5864 173.739 23.02C173.739 23.4535 173.877 23.8166 174.153 24.1092C174.441 24.3964 174.785 24.54 175.186 24.54C175.598 24.54 175.942 24.3964 176.218 24.1092C176.5 23.822 176.641 23.4589 176.641 23.02C176.641 22.581 176.5 22.2206 176.218 21.9388C175.942 21.6462 175.598 21.4999 175.186 21.4999ZM184.574 20.622L183.85 20.8333C183.802 20.6166 183.661 20.435 183.428 20.2887C183.2 20.137 182.932 20.0611 182.623 20.0611C182.282 20.0611 182 20.1451 181.778 20.3131C181.555 20.4757 181.444 20.6816 181.444 20.9309C181.444 21.2018 181.596 21.4132 181.9 21.5649C182.138 21.6787 182.504 21.7979 182.997 21.9226C183.398 22.0255 183.71 22.1312 183.932 22.2396C184.452 22.4835 184.726 22.9089 184.753 23.5158C184.753 24.0252 184.558 24.4371 184.167 24.7514C183.788 25.0657 183.295 25.2228 182.688 25.2228C182.141 25.2228 181.675 25.0955 181.29 24.8408C180.905 24.5915 180.661 24.2664 180.558 23.8653L181.29 23.6459C181.333 23.8951 181.485 24.1038 181.745 24.2718C182.011 24.4344 182.325 24.5156 182.688 24.5156C183.067 24.5156 183.384 24.4289 183.639 24.2555C183.894 24.0767 184.021 23.8491 184.021 23.5727C184.021 23.2909 183.886 23.0796 183.615 22.9387C183.376 22.814 183.103 22.7138 182.794 22.6379L182.452 22.5485L182.135 22.4509L181.802 22.3371C181.786 22.3317 181.761 22.3236 181.729 22.3128C181.702 22.2965 181.667 22.2802 181.623 22.264C181.58 22.2423 181.542 22.2233 181.509 22.2071C181.374 22.142 181.214 22.0255 181.03 21.8575C180.846 21.6733 180.737 21.3807 180.705 20.9796C180.705 20.4973 180.883 20.1072 181.241 19.8091C181.604 19.5056 182.062 19.3539 182.615 19.3539C183.113 19.3539 183.539 19.4731 183.891 19.7116C184.249 19.9446 184.476 20.2481 184.574 20.622ZM185.243 21.508V20.9065H185.926V20.0611H186.609V20.9065H187.787V21.508H186.609V23.8084C186.609 23.9981 186.665 24.158 186.779 24.288C186.899 24.4127 187.045 24.475 187.218 24.475H187.787V25.1334H187.169C186.817 25.1334 186.522 25.0142 186.283 24.7758C186.045 24.5373 185.926 24.242 185.926 23.8897V21.508H185.243ZM192.733 23.2557H189.099C189.148 23.635 189.316 23.952 189.603 24.2067C189.885 24.456 190.232 24.5807 190.644 24.5807C191.18 24.5807 191.597 24.3775 191.896 23.971L192.562 24.1824C192.367 24.5075 192.099 24.7622 191.757 24.9465C191.421 25.1307 191.05 25.2228 190.644 25.2228C190.004 25.2228 189.468 25.0142 189.034 24.5969C188.606 24.1742 188.392 23.6486 188.392 23.02C188.392 22.3913 188.601 21.8684 189.018 21.4511C189.435 21.0284 189.953 20.8171 190.571 20.8171C191.194 20.8171 191.711 21.0284 192.123 21.4511C192.54 21.8684 192.749 22.3913 192.749 23.02C192.749 23.0362 192.744 23.1148 192.733 23.2557ZM189.107 22.7029H192.042C191.977 22.3398 191.806 22.0391 191.53 21.8006C191.259 21.5676 190.934 21.4511 190.554 21.4511C190.186 21.4511 189.869 21.5676 189.603 21.8006C189.338 22.0337 189.172 22.3344 189.107 22.7029ZM194.303 26.9624H193.621V20.9065H194.303V21.508C194.699 21.0474 195.211 20.8171 195.84 20.8171C196.436 20.8171 196.932 21.0284 197.327 21.4511C197.728 21.8684 197.929 22.3913 197.929 23.02C197.929 23.6432 197.728 24.1688 197.327 24.5969C196.926 25.0142 196.43 25.2228 195.84 25.2228C195.211 25.2228 194.699 24.9925 194.303 24.5319V26.9624ZM195.766 21.4999C195.36 21.4999 195.016 21.6462 194.734 21.9388C194.458 22.226 194.32 22.5864 194.32 23.02C194.32 23.4535 194.458 23.8166 194.734 24.1092C195.021 24.3964 195.365 24.54 195.766 24.54C196.178 24.54 196.522 24.3964 196.799 24.1092C197.081 23.822 197.222 23.4589 197.222 23.02C197.222 22.581 197.081 22.2206 196.799 21.9388C196.522 21.6462 196.178 21.4999 195.766 21.4999Z" fill="white"/>
<path d="M208.888 103.914H206.759V103.232H211.75V103.914H209.62V108.922H208.888V103.914ZM212.578 106.532V108.922H211.895V104.695H212.578V105.41C212.898 104.874 213.399 104.605 214.082 104.605H214.195V105.361C214.109 105.329 214.009 105.313 213.895 105.313C213.521 105.313 213.209 105.429 212.96 105.662C212.705 105.901 212.578 106.19 212.578 106.532ZM216.606 104.605C217.24 104.605 217.755 104.836 218.151 105.296V104.695H218.834V108.922H218.151V108.32C217.755 108.781 217.24 109.011 216.606 109.011C216.016 109.011 215.52 108.803 215.119 108.385C214.723 107.968 214.525 107.442 214.525 106.808C214.525 106.174 214.723 105.651 215.119 105.239C215.514 104.817 216.01 104.605 216.606 104.605ZM216.679 105.288C216.273 105.288 215.929 105.435 215.647 105.727C215.371 106.014 215.233 106.375 215.233 106.808C215.233 107.242 215.371 107.605 215.647 107.898C215.934 108.185 216.278 108.328 216.679 108.328C217.091 108.328 217.435 108.185 217.712 107.898C217.994 107.61 218.135 107.247 218.135 106.808C218.135 106.369 217.994 106.009 217.712 105.727C217.435 105.435 217.091 105.288 216.679 105.288ZM221.846 104.605C222.48 104.605 222.994 104.836 223.39 105.296V102.825H224.073V108.922H223.39V108.32C222.994 108.781 222.48 109.011 221.846 109.011C221.255 109.011 220.759 108.803 220.358 108.385C219.962 107.968 219.765 107.442 219.765 106.808C219.765 106.174 219.962 105.651 220.358 105.239C220.754 104.817 221.249 104.605 221.846 104.605ZM221.919 105.288C221.512 105.288 221.168 105.435 220.886 105.727C220.61 106.014 220.472 106.375 220.472 106.808C220.472 107.242 220.61 107.605 220.886 107.898C221.174 108.185 221.518 108.328 221.919 108.328C222.331 108.328 222.675 108.185 222.951 107.898C223.233 107.61 223.374 107.247 223.374 106.808C223.374 106.369 223.233 106.009 222.951 105.727C222.675 105.435 222.331 105.288 221.919 105.288ZM225.906 108.922H225.223V104.695H225.906V108.922ZM225.223 104.004C225.137 103.912 225.093 103.798 225.093 103.662C225.093 103.527 225.137 103.416 225.223 103.329C225.315 103.237 225.429 103.191 225.565 103.191C225.7 103.191 225.814 103.237 225.906 103.329C225.998 103.416 226.044 103.527 226.044 103.662C226.044 103.798 225.998 103.912 225.906 104.004C225.814 104.091 225.7 104.134 225.565 104.134C225.429 104.134 225.315 104.091 225.223 104.004ZM227.057 108.922V104.695H227.74V105.402C228.076 104.871 228.577 104.605 229.244 104.605C229.731 104.605 230.135 104.765 230.455 105.085C230.78 105.399 230.943 105.8 230.943 106.288V108.922H230.26V106.467C230.26 106.125 230.143 105.838 229.91 105.605C229.683 105.372 229.398 105.256 229.057 105.256C228.688 105.256 228.377 105.375 228.122 105.613C227.867 105.852 227.74 106.142 227.74 106.483V108.922H227.057ZM233.943 109.011C233.353 109.011 232.857 108.803 232.456 108.385C232.06 107.968 231.862 107.442 231.862 106.808C231.862 106.174 232.06 105.651 232.456 105.239C232.851 104.817 233.347 104.605 233.943 104.605C234.577 104.605 235.092 104.836 235.488 105.296V104.695H236.171V108.743C236.171 109.344 235.965 109.843 235.553 110.239C235.136 110.64 234.629 110.84 234.033 110.84C233.621 110.84 233.233 110.737 232.87 110.531C232.518 110.325 232.261 110.065 232.098 109.751L232.781 109.531C232.895 109.716 233.063 109.865 233.285 109.978C233.513 110.098 233.754 110.157 234.008 110.157C234.426 110.157 234.778 110.022 235.065 109.751C235.352 109.48 235.493 109.144 235.488 108.743V108.32C235.092 108.781 234.577 109.011 233.943 109.011ZM234.017 105.288C233.61 105.288 233.266 105.435 232.984 105.727C232.708 106.014 232.57 106.375 232.57 106.808C232.57 107.242 232.708 107.605 232.984 107.898C233.271 108.185 233.616 108.328 234.017 108.328C234.428 108.328 234.773 108.185 235.049 107.898C235.331 107.61 235.472 107.247 235.472 106.808C235.472 106.369 235.331 106.009 235.049 105.727C234.773 105.435 234.428 105.288 234.017 105.288Z" fill="white"/>
<path d="M144.113 243.047H146.95V243.52H144.62V244.758H146.663V245.231H144.62V246.514H146.978V246.986H144.113V243.047ZM148.798 243.998C149.237 243.998 149.593 244.158 149.867 244.476V244.06H150.34V246.986H149.867V246.57C149.593 246.889 149.237 247.048 148.798 247.048C148.389 247.048 148.045 246.904 147.768 246.615C147.494 246.326 147.357 245.962 147.357 245.523C147.357 245.084 147.494 244.722 147.768 244.437C148.042 244.144 148.385 243.998 148.798 243.998ZM148.848 244.471C148.567 244.471 148.329 244.572 148.134 244.775C147.942 244.974 147.847 245.223 147.847 245.523C147.847 245.823 147.942 246.075 148.134 246.277C148.332 246.476 148.571 246.576 148.848 246.576C149.133 246.576 149.372 246.476 149.563 246.277C149.758 246.078 149.856 245.827 149.856 245.523C149.856 245.219 149.758 244.97 149.563 244.775C149.372 244.572 149.133 244.471 148.848 244.471ZM151.609 245.332V246.986H151.136V244.06H151.609V244.555C151.83 244.184 152.177 243.998 152.65 243.998H152.729V244.521C152.669 244.499 152.599 244.488 152.52 244.488C152.262 244.488 152.046 244.568 151.873 244.73C151.697 244.895 151.609 245.095 151.609 245.332ZM153.246 246.986V244.06H153.719V244.55C153.952 244.182 154.299 243.998 154.76 243.998C155.098 243.998 155.377 244.109 155.599 244.33C155.824 244.548 155.936 244.825 155.936 245.163V246.986H155.464V245.287C155.464 245.05 155.383 244.852 155.222 244.69C155.064 244.529 154.867 244.448 154.631 244.448C154.376 244.448 154.16 244.531 153.984 244.696C153.807 244.861 153.719 245.062 153.719 245.298V246.986H153.246ZM157.198 246.986H156.725V244.06H157.198V246.986ZM156.725 243.582C156.665 243.518 156.635 243.439 156.635 243.345C156.635 243.251 156.665 243.175 156.725 243.115C156.789 243.051 156.868 243.019 156.961 243.019C157.055 243.019 157.134 243.051 157.198 243.115C157.262 243.175 157.294 243.251 157.294 243.345C157.294 243.439 157.262 243.518 157.198 243.582C157.134 243.642 157.055 243.672 156.961 243.672C156.868 243.672 156.789 243.642 156.725 243.582ZM157.995 246.986V244.06H158.467V244.55C158.7 244.182 159.047 243.998 159.508 243.998C159.846 243.998 160.126 244.109 160.347 244.33C160.572 244.548 160.685 244.825 160.685 245.163V246.986H160.212V245.287C160.212 245.05 160.131 244.852 159.97 244.69C159.812 244.529 159.615 244.448 159.379 244.448C159.124 244.448 158.908 244.531 158.732 244.696C158.556 244.861 158.467 245.062 158.467 245.298V246.986H157.995ZM162.762 247.048C162.353 247.048 162.01 246.904 161.732 246.615C161.458 246.326 161.321 245.962 161.321 245.523C161.321 245.084 161.458 244.722 161.732 244.437C162.006 244.144 162.349 243.998 162.762 243.998C163.201 243.998 163.557 244.158 163.831 244.476V244.06H164.304V246.863C164.304 247.279 164.162 247.624 163.876 247.898C163.587 248.176 163.237 248.314 162.824 248.314C162.539 248.314 162.271 248.243 162.019 248.101C161.775 247.958 161.597 247.778 161.485 247.56L161.957 247.408C162.036 247.536 162.152 247.639 162.306 247.718C162.464 247.8 162.631 247.842 162.807 247.842C163.096 247.842 163.34 247.748 163.539 247.56C163.738 247.373 163.835 247.14 163.831 246.863V246.57C163.557 246.889 163.201 247.048 162.762 247.048ZM162.813 244.471C162.531 244.471 162.293 244.572 162.098 244.775C161.907 244.974 161.811 245.223 161.811 245.523C161.811 245.823 161.907 246.075 162.098 246.277C162.297 246.476 162.535 246.576 162.813 246.576C163.098 246.576 163.336 246.476 163.527 246.277C163.723 246.078 163.82 245.827 163.82 245.523C163.82 245.219 163.723 244.97 163.527 244.775C163.336 244.572 163.098 244.471 162.813 244.471Z" fill="white"/>
<defs>
<filter id="filter0_b_5_919" x="-5.62759" y="-5.62759" width="395.182" height="283.255" filterUnits="userSpaceOnUse" color-interpolation-filters="sRGB">
<feFlood flood-opacity="0" result="BackgroundImageFix"/>
<feGaussianBlur in="BackgroundImage" stdDeviation="2.81379"/>
<feComposite in2="SourceAlpha" operator="in" result="effect1_backgroundBlur_5_919"/>
<feBlend mode="normal" in="SourceGraphic" in2="effect1_backgroundBlur_5_919" result="shape"/>
</filter>
<radialGradient id="paint0_radial_5_919" cx="0" cy="0" r="1" gradientUnits="userSpaceOnUse" gradientTransform="translate(204.469 114.74) rotate(92.3003) scale(148 208.901)">
<stop stop-color="#40539D"/>
<stop offset="1" stop-color="#605CFF" stop-opacity="0"/>
</radialGradient>
</defs>
</svg>
