<svg width="270" height="272" viewBox="0 0 270 272" fill="none" xmlns="http://www.w3.org/2000/svg">
<line x1="113.386" y1="106.05" x2="163.93" y2="106.04" stroke="#5452F6" stroke-width="1.04223"/>
<path d="M158.718 101.298L164.19 106.247L158.72 110.938" stroke="#5452F6" stroke-width="1.04223" stroke-linecap="round" stroke-linejoin="round"/>
<circle cx="111.041" cy="106.311" r="2.86614" stroke="#5452F6" stroke-width="1.04223"/>
<path d="M267.832 107.3L297.114 107.294C308.626 107.291 317.957 97.9571 317.954 86.4449L317.949 59.8202" stroke="#5452F6" stroke-width="1.04223" stroke-linecap="round" stroke-linejoin="round"/>
<circle cx="265.488" cy="107.561" r="2.86614" transform="rotate(-90.0117 265.488 107.561)" fill="#5452F6"/>
<line x1="210.931" y1="24.1395" x2="272.73" y2="24.1269" stroke="#5452F6" stroke-width="1.04223" stroke-dasharray="2.61 4.17"/>
<path d="M267.518 18.7598L272.99 23.7093L267.52 28.4004" stroke="#5452F6" stroke-width="1.04223" stroke-linecap="round" stroke-linejoin="round"/>
<circle cx="208.586" cy="24.4007" r="2.86614" stroke="#5452F6" stroke-width="1.04223"/>
<path d="M147.621 213.237L147.618 196.397C147.616 190.641 152.282 185.974 158.038 185.973L271.733 185.949C277.489 185.948 282.157 190.614 282.158 196.37L282.161 213.209" stroke="#5452F6" stroke-width="1.04223"/>
<line x1="214.312" y1="185.714" x2="214.306" y2="157.052" stroke="#5452F6" stroke-width="1.04223"/>
<path d="M152.584 208.025L147.762 213.237L143.191 208.027" stroke="#5452F6" stroke-width="1.04223" stroke-linecap="round" stroke-linejoin="round"/>
<circle cx="214.045" cy="154.186" r="2.86614" stroke="#5452F6" stroke-width="1.04223"/>
<g filter="url(#filter0_b_5_919)">
<path fill-rule="evenodd" clip-rule="evenodd" d="M297.637 0C291.766 0 287.007 4.75915 287.007 10.6299V38.1425C287.007 44.0133 291.766 48.7724 297.637 48.7724H373.297C379.167 48.7724 383.926 44.0133 383.926 38.1425V10.6299C383.926 4.75916 379.167 0 373.297 0H297.637ZM10.6299 81.2873C4.75916 81.2873 0 86.0465 0 91.9172V119.43C0 125.301 4.75917 130.06 10.6299 130.06H86.2896C92.1604 130.06 96.9195 125.301 96.9195 119.43V91.9172C96.9195 86.0465 92.1604 81.2873 86.2896 81.2873H10.6299ZM147.568 223.228C134.1 223.228 123.182 234.146 123.182 247.614C123.182 261.082 134.1 272 147.568 272C161.036 272 171.954 261.082 171.954 247.614C171.954 234.146 161.036 223.228 147.568 223.228ZM258.244 247.614C258.244 234.146 269.162 223.228 282.63 223.228C296.098 223.228 307.016 234.146 307.016 247.614C307.016 261.082 296.098 272 282.63 272C269.162 272 258.244 261.082 258.244 247.614ZM123.182 19.3839C123.182 13.5132 127.941 8.754 133.811 8.754H185.71C191.581 8.754 196.34 13.5132 196.34 19.3839V27.5126C196.34 33.3833 191.581 38.1425 185.71 38.1425H133.811C127.941 38.1425 123.182 33.3833 123.182 27.5126V19.3839ZM216.331 71.1114C214.703 69.4837 212.063 69.4842 210.435 71.1126L178.036 103.526C176.408 105.154 176.409 107.794 178.037 109.421L210.45 141.821C212.078 143.449 214.718 143.448 216.346 141.82L248.745 109.407C250.373 107.778 250.373 105.139 248.744 103.511L216.331 71.1114Z" fill="url(#paint0_radial_5_919)"/>
</g>
<path d="M46.8987 71.9081L46.8986 44.302C46.8985 32.7914 56.2284 23.4596 67.739 23.4572L108.124 23.4489" stroke="#5452F6" stroke-width="1.04223" stroke-linecap="round" stroke-linejoin="round"/>
<path d="M108.729 23.8457L104.567 27.6228C104.232 27.9267 103.696 27.6892 103.696 27.237L103.694 19.8927C103.694 19.4474 104.216 19.2071 104.554 19.4968L108.718 23.0641C108.956 23.2682 108.961 23.6349 108.729 23.8457Z" fill="#5452F6"/>
<circle r="2.86614" transform="matrix(1 -0.000204516 -0.000204516 -1 46.6369 71.6483)" fill="#5452F6"/>
<path d="M23.1513 103.125V111.297H25.0075V108.051H28.5798V106.347H25.0075V104.829H29.2569V103.125H23.1513ZM31.7755 111.297V105.226H30.0244V111.297H31.7755ZM30.1178 104.491C30.328 104.689 30.5848 104.794 30.9 104.794C31.2152 104.794 31.472 104.689 31.6705 104.491C31.8806 104.292 31.9857 104.035 31.9857 103.72C31.9857 103.405 31.8806 103.148 31.6705 102.95C31.472 102.751 31.2152 102.646 30.9 102.646C30.5848 102.646 30.328 102.751 30.1178 102.95C29.9194 103.148 29.8143 103.405 29.8143 103.72C29.8143 104.035 29.9194 104.292 30.1178 104.491ZM34.5117 105.226H32.7605V111.297H34.5117V108.028C34.5117 107.316 35.037 106.779 35.7374 106.779C35.9943 106.779 36.2044 106.837 36.3679 106.942V105.074C35.539 105.074 34.9203 105.331 34.5117 105.856V105.226ZM41.6731 106.732C41.5213 105.693 40.6574 105.074 39.2449 105.074C37.7623 105.074 36.7816 105.681 36.7816 107.024C36.7816 107.923 37.2486 108.46 38.381 108.775L39.49 109.102C39.8986 109.219 40.0971 109.37 40.0971 109.569C40.0971 109.849 39.7702 110.012 39.3033 110.012C38.7312 110.012 38.381 109.814 38.2643 109.405L36.6532 109.627C36.8283 110.783 37.7389 111.448 39.2682 111.448C40.7742 111.448 41.7665 110.771 41.7665 109.499C41.7665 108.577 41.2645 108.016 40.0387 107.631L38.953 107.281C38.6378 107.164 38.4744 107.024 38.4744 106.872C38.4744 106.604 38.7079 106.475 39.1632 106.475C39.6651 106.475 39.9687 106.65 40.0737 106.989L41.6731 106.732ZM42.1339 106.744H42.9627V109.359C42.9627 109.907 43.1612 110.374 43.5698 110.748C43.9784 111.11 44.492 111.297 45.0874 111.297H46.0914V109.662H45.3793C44.994 109.662 44.7138 109.394 44.7138 109.02V106.744H46.0914V105.226H44.7138V104.047H42.9627V105.226H42.1339V106.744ZM55.5274 104.888C55.3756 104.339 55.037 103.884 54.4884 103.522C53.9513 103.16 53.3093 102.973 52.5738 102.973C51.7449 102.973 51.0678 103.206 50.5425 103.673C50.0288 104.129 49.772 104.736 49.772 105.483C49.772 105.962 49.9238 106.382 50.0989 106.674C50.274 106.966 50.6826 107.246 50.9278 107.421C51.0562 107.503 51.243 107.584 51.4881 107.689L52.0601 107.899C52.2002 107.934 52.4104 108.005 52.6789 108.086L52.7956 108.121C53.2626 108.273 53.5428 108.366 53.8113 108.6C53.9513 108.717 54.0214 108.845 54.0214 108.997C54.0214 109.429 53.4844 109.744 52.819 109.744C52.0835 109.744 51.5231 109.382 51.3947 108.915L49.5385 109.359C49.7136 109.977 50.0872 110.479 50.6826 110.865C51.278 111.25 51.9901 111.448 52.819 111.448C53.7179 111.448 54.4533 111.215 55.0254 110.736C55.5974 110.258 55.8776 109.627 55.8776 108.833C55.8309 107.829 55.434 107.257 54.7569 106.895C54.2899 106.615 54.0331 106.534 53.5311 106.382C52.8773 106.183 52.4687 106.055 52.3053 105.997C51.85 105.81 51.6282 105.588 51.6282 105.343C51.6282 104.958 52.0485 104.677 52.6088 104.677C53.1575 104.677 53.5895 104.958 53.6945 105.319L55.5274 104.888ZM56.1679 106.744H56.9967V109.359C56.9967 109.907 57.1952 110.374 57.6038 110.748C58.0124 111.11 58.5261 111.297 59.1214 111.297H60.1254V109.662H59.4133C59.028 109.662 58.7479 109.394 58.7479 109.02V106.744H60.1254V105.226H58.7479V104.047H56.9967V105.226H56.1679V106.744ZM67.0384 108.892C67.0851 108.693 67.1084 108.483 67.1084 108.261C67.1084 107.362 66.8049 106.604 66.1862 105.997C65.5675 105.378 64.8086 105.074 63.8981 105.074C62.9758 105.074 62.217 105.378 61.5983 105.997C60.9795 106.604 60.676 107.362 60.676 108.261C60.676 109.172 60.9912 109.931 61.6216 110.538C62.252 111.145 63.0458 111.448 63.9915 111.448C65.2873 111.448 66.3496 110.818 66.8983 109.802L65.2056 109.417C64.902 109.779 64.5051 109.954 64.0031 109.954C63.291 109.954 62.719 109.534 62.5205 108.892H67.0384ZM62.5322 107.596C62.7306 106.977 63.2793 106.569 63.8981 106.569C64.5518 106.569 65.1005 106.977 65.3223 107.596H62.5322ZM69.5682 113.923V110.888C70.0702 111.262 70.6189 111.448 71.2376 111.448C72.0548 111.448 72.7436 111.145 73.2923 110.538C73.8409 109.919 74.1211 109.16 74.1211 108.261C74.1211 107.351 73.8409 106.592 73.2923 105.985C72.7436 105.378 72.0548 105.074 71.2376 105.074C70.6072 105.074 70.0469 105.261 69.5682 105.635V105.226H67.8171V113.923H69.5682ZM70.9458 106.802C71.6929 106.802 72.2883 107.432 72.2883 108.273C72.2883 108.682 72.1599 109.02 71.8914 109.3C71.6345 109.581 71.3193 109.721 70.9458 109.721C70.1869 109.721 69.5916 109.079 69.5916 108.273C69.5916 107.432 70.1869 106.802 70.9458 106.802Z" fill="white"/>
<path d="M139.06 20.622L138.336 20.8333C138.288 20.6166 138.147 20.435 137.914 20.2887C137.686 20.137 137.418 20.0611 137.109 20.0611C136.767 20.0611 136.486 20.1451 136.263 20.3131C136.041 20.4757 135.93 20.6816 135.93 20.9309C135.93 21.2018 136.082 21.4132 136.385 21.5649C136.624 21.6787 136.99 21.7979 137.483 21.9226C137.884 22.0255 138.195 22.1312 138.418 22.2396C138.938 22.4835 139.212 22.9089 139.239 23.5158C139.239 24.0252 139.044 24.4371 138.653 24.7514C138.274 25.0657 137.781 25.2228 137.174 25.2228C136.627 25.2228 136.161 25.0955 135.776 24.8408C135.391 24.5915 135.147 24.2664 135.044 23.8653L135.776 23.6459C135.819 23.8951 135.971 24.1038 136.231 24.2718C136.497 24.4344 136.811 24.5156 137.174 24.5156C137.553 24.5156 137.87 24.4289 138.125 24.2555C138.38 24.0767 138.507 23.8491 138.507 23.5727C138.507 23.2909 138.372 23.0796 138.101 22.9387C137.862 22.814 137.588 22.7138 137.28 22.6379L136.938 22.5485L136.621 22.4509L136.288 22.3371C136.272 22.3317 136.247 22.3236 136.215 22.3128C136.188 22.2965 136.152 22.2802 136.109 22.264C136.066 22.2423 136.028 22.2233 135.995 22.2071C135.86 22.142 135.7 22.0255 135.516 21.8575C135.331 21.6733 135.223 21.3807 135.19 20.9796C135.19 20.4973 135.369 20.1072 135.727 19.8091C136.09 19.5056 136.548 19.3539 137.101 19.3539C137.599 19.3539 138.025 19.4731 138.377 19.7116C138.735 19.9446 138.962 20.2481 139.06 20.622ZM144.305 23.2557H140.672C140.721 23.635 140.888 23.952 141.176 24.2067C141.458 24.456 141.804 24.5807 142.216 24.5807C142.753 24.5807 143.17 24.3775 143.468 23.971L144.135 24.1824C143.939 24.5075 143.671 24.7622 143.33 24.9465C142.994 25.1307 142.623 25.2228 142.216 25.2228C141.577 25.2228 141.04 25.0142 140.607 24.5969C140.179 24.1742 139.965 23.6486 139.965 23.02C139.965 22.3913 140.173 21.8684 140.59 21.4511C141.008 21.0284 141.525 20.8171 142.143 20.8171C142.766 20.8171 143.284 21.0284 143.696 21.4511C144.113 21.8684 144.322 22.3913 144.322 23.02C144.322 23.0362 144.316 23.1148 144.305 23.2557ZM140.68 22.7029H143.614C143.549 22.3398 143.379 22.0391 143.102 21.8006C142.831 21.5676 142.506 21.4511 142.127 21.4511C141.758 21.4511 141.441 21.5676 141.176 21.8006C140.91 22.0337 140.745 22.3344 140.68 22.7029ZM149.192 22.0933L148.51 22.2965C148.385 22.0526 148.203 21.8603 147.965 21.7194C147.732 21.573 147.469 21.4999 147.176 21.4999C146.748 21.4999 146.393 21.6462 146.112 21.9388C145.824 22.226 145.681 22.5864 145.681 23.02C145.681 23.4481 145.824 23.8111 146.112 24.1092C146.399 24.3964 146.754 24.54 147.176 24.54C147.469 24.54 147.732 24.4696 147.965 24.3287C148.203 24.1824 148.385 23.9873 148.51 23.7434L149.192 23.9466C149.019 24.3422 148.751 24.6538 148.388 24.8814C148.03 25.109 147.626 25.2228 147.176 25.2228C146.553 25.2228 146.028 25.0142 145.599 24.5969C145.182 24.1688 144.974 23.6432 144.974 23.02C144.974 22.3913 145.182 21.8684 145.599 21.4511C146.022 21.0284 146.548 20.8171 147.176 20.8171C147.626 20.8171 148.03 20.9309 148.388 21.1585C148.751 21.3861 149.019 21.6977 149.192 22.0933ZM150.466 24.5969C150.048 24.1688 149.84 23.6432 149.84 23.02C149.84 22.3913 150.048 21.8684 150.466 21.4511C150.888 21.0284 151.414 20.8171 152.043 20.8171C152.671 20.8171 153.197 21.0284 153.62 21.4511C154.042 21.8684 154.254 22.3913 154.254 23.02C154.254 23.6486 154.042 24.1742 153.62 24.5969C153.191 25.0142 152.666 25.2228 152.043 25.2228C151.419 25.2228 150.894 25.0142 150.466 24.5969ZM152.043 24.54C152.471 24.54 152.828 24.3964 153.116 24.1092C153.403 23.8111 153.546 23.4481 153.546 23.02C153.546 22.5864 153.403 22.226 153.116 21.9388C152.828 21.6462 152.471 21.4999 152.043 21.4999C151.614 21.4999 151.259 21.6462 150.978 21.9388C150.69 22.226 150.547 22.5864 150.547 23.02C150.547 23.4481 150.69 23.8111 150.978 24.1092C151.265 24.3964 151.62 24.54 152.043 24.54ZM155.187 25.1334V20.9065H155.87V21.6137C156.206 21.0826 156.707 20.8171 157.374 20.8171C157.862 20.8171 158.265 20.9769 158.585 21.2967C158.91 21.611 159.073 22.012 159.073 22.4997V25.1334H158.39V22.6785C158.39 22.3371 158.273 22.0499 158.04 21.8169C157.813 21.5839 157.528 21.4674 157.187 21.4674C156.818 21.4674 156.507 21.5866 156.252 21.825C155.997 22.0635 155.87 22.3534 155.87 22.6948V25.1334H155.187ZM162.074 20.8171C162.708 20.8171 163.222 21.0474 163.618 21.508V19.0369H164.301V25.1334H163.618V24.5319C163.222 24.9925 162.708 25.2228 162.074 25.2228C161.483 25.2228 160.987 25.0142 160.586 24.5969C160.19 24.1797 159.993 23.654 159.993 23.02C159.993 22.3859 160.19 21.863 160.586 21.4511C160.982 21.0284 161.478 20.8171 162.074 20.8171ZM162.147 21.4999C161.74 21.4999 161.396 21.6462 161.114 21.9388C160.838 22.226 160.7 22.5864 160.7 23.02C160.7 23.4535 160.838 23.8166 161.114 24.1092C161.402 24.3964 161.746 24.54 162.147 24.54C162.559 24.54 162.903 24.3964 163.179 24.1092C163.461 23.822 163.602 23.4589 163.602 23.02C163.602 22.581 163.461 22.2206 163.179 21.9388C162.903 21.6462 162.559 21.4999 162.147 21.4999ZM171.535 20.622L170.812 20.8333C170.763 20.6166 170.622 20.435 170.389 20.2887C170.161 20.137 169.893 20.0611 169.584 20.0611C169.243 20.0611 168.961 20.1451 168.739 20.3131C168.517 20.4757 168.405 20.6816 168.405 20.9309C168.405 21.2018 168.557 21.4132 168.861 21.5649C169.099 21.6787 169.465 21.7979 169.958 21.9226C170.359 22.0255 170.671 22.1312 170.893 22.2396C171.413 22.4835 171.687 22.9089 171.714 23.5158C171.714 24.0252 171.519 24.4371 171.129 24.7514C170.749 25.0657 170.256 25.2228 169.649 25.2228C169.102 25.2228 168.636 25.0955 168.251 24.8408C167.866 24.5915 167.622 24.2664 167.519 23.8653L168.251 23.6459C168.294 23.8951 168.446 24.1038 168.706 24.2718C168.972 24.4344 169.286 24.5156 169.649 24.5156C170.028 24.5156 170.346 24.4289 170.6 24.2555C170.855 24.0767 170.982 23.8491 170.982 23.5727C170.982 23.2909 170.847 23.0796 170.576 22.9387C170.337 22.814 170.064 22.7138 169.755 22.6379L169.413 22.5485L169.096 22.4509L168.763 22.3371C168.747 22.3317 168.722 22.3236 168.69 22.3128C168.663 22.2965 168.628 22.2802 168.584 22.264C168.541 22.2423 168.503 22.2233 168.47 22.2071C168.335 22.142 168.175 22.0255 167.991 21.8575C167.807 21.6733 167.698 21.3807 167.666 20.9796C167.666 20.4973 167.845 20.1072 168.202 19.8091C168.565 19.5056 169.023 19.3539 169.576 19.3539C170.075 19.3539 170.5 19.4731 170.852 19.7116C171.21 19.9446 171.437 20.2481 171.535 20.622ZM172.204 21.508V20.9065H172.887V20.0611H173.57V20.9065H174.748V21.508H173.57V23.8084C173.57 23.9981 173.627 24.158 173.74 24.288C173.86 24.4127 174.006 24.475 174.179 24.475H174.748V25.1334H174.131C173.778 25.1334 173.483 25.0142 173.245 24.7758C173.006 24.5373 172.887 24.242 172.887 23.8897V21.508H172.204ZM179.694 23.2557H176.06C176.109 23.635 176.277 23.952 176.564 24.2067C176.846 24.456 177.193 24.5807 177.605 24.5807C178.141 24.5807 178.559 24.3775 178.857 23.971L179.523 24.1824C179.328 24.5075 179.06 24.7622 178.718 24.9465C178.382 25.1307 178.011 25.2228 177.605 25.2228C176.965 25.2228 176.429 25.0142 175.995 24.5969C175.567 24.1742 175.353 23.6486 175.353 23.02C175.353 22.3913 175.562 21.8684 175.979 21.4511C176.396 21.0284 176.914 20.8171 177.532 20.8171C178.155 20.8171 178.672 21.0284 179.084 21.4511C179.501 21.8684 179.71 22.3913 179.71 23.02C179.71 23.0362 179.705 23.1148 179.694 23.2557ZM176.068 22.7029H179.003C178.938 22.3398 178.767 22.0391 178.491 21.8006C178.22 21.5676 177.895 21.4511 177.515 21.4511C177.147 21.4511 176.83 21.5676 176.564 21.8006C176.299 22.0337 176.133 22.3344 176.068 22.7029ZM181.264 26.9624H180.582V20.9065H181.264V21.508C181.66 21.0474 182.172 20.8171 182.801 20.8171C183.397 20.8171 183.893 21.0284 184.288 21.4511C184.689 21.8684 184.89 22.3913 184.89 23.02C184.89 23.6432 184.689 24.1688 184.288 24.5969C183.887 25.0142 183.391 25.2228 182.801 25.2228C182.172 25.2228 181.66 24.9925 181.264 24.5319V26.9624ZM182.728 21.4999C182.321 21.4999 181.977 21.6462 181.695 21.9388C181.419 22.226 181.281 22.5864 181.281 23.02C181.281 23.4535 181.419 23.8166 181.695 24.1092C181.982 24.3964 182.327 24.54 182.728 24.54C183.139 24.54 183.484 24.3964 183.76 24.1092C184.042 23.822 184.183 23.4589 184.183 23.02C184.183 22.581 184.042 22.2206 183.76 21.9388C183.484 21.6462 183.139 21.4999 182.728 21.4999Z" fill="white"/>
<path d="M200.963 103.914H198.833V103.232H203.824V103.914H201.694V108.922H200.963V103.914ZM204.652 106.532V108.922H203.969V104.695H204.652V105.41C204.972 104.874 205.473 104.605 206.156 104.605H206.27V105.361C206.183 105.329 206.083 105.313 205.969 105.313C205.595 105.313 205.284 105.429 205.034 105.662C204.78 105.901 204.652 106.19 204.652 106.532ZM208.681 104.605C209.315 104.605 209.83 104.836 210.225 105.296V104.695H210.908V108.922H210.225V108.32C209.83 108.781 209.315 109.011 208.681 109.011C208.09 109.011 207.594 108.803 207.193 108.385C206.798 107.968 206.6 107.442 206.6 106.808C206.6 106.174 206.798 105.651 207.193 105.239C207.589 104.817 208.085 104.605 208.681 104.605ZM208.754 105.288C208.347 105.288 208.003 105.435 207.722 105.727C207.445 106.014 207.307 106.375 207.307 106.808C207.307 107.242 207.445 107.605 207.722 107.898C208.009 108.185 208.353 108.328 208.754 108.328C209.166 108.328 209.51 108.185 209.786 107.898C210.068 107.61 210.209 107.247 210.209 106.808C210.209 106.369 210.068 106.009 209.786 105.727C209.51 105.435 209.166 105.288 208.754 105.288ZM213.92 104.605C214.554 104.605 215.069 104.836 215.464 105.296V102.825H216.147V108.922H215.464V108.32C215.069 108.781 214.554 109.011 213.92 109.011C213.329 109.011 212.833 108.803 212.432 108.385C212.037 107.968 211.839 107.442 211.839 106.808C211.839 106.174 212.037 105.651 212.432 105.239C212.828 104.817 213.324 104.605 213.92 104.605ZM213.993 105.288C213.587 105.288 213.243 105.435 212.961 105.727C212.684 106.014 212.546 106.375 212.546 106.808C212.546 107.242 212.684 107.605 212.961 107.898C213.248 108.185 213.592 108.328 213.993 108.328C214.405 108.328 214.749 108.185 215.025 107.898C215.307 107.61 215.448 107.247 215.448 106.808C215.448 106.369 215.307 106.009 215.025 105.727C214.749 105.435 214.405 105.288 213.993 105.288ZM217.981 108.922H217.298V104.695H217.981V108.922ZM217.298 104.004C217.211 103.912 217.168 103.798 217.168 103.662C217.168 103.527 217.211 103.416 217.298 103.329C217.39 103.237 217.504 103.191 217.639 103.191C217.775 103.191 217.888 103.237 217.981 103.329C218.073 103.416 218.119 103.527 218.119 103.662C218.119 103.798 218.073 103.912 217.981 104.004C217.888 104.091 217.775 104.134 217.639 104.134C217.504 104.134 217.39 104.091 217.298 104.004ZM219.131 108.922V104.695H219.814V105.402C220.15 104.871 220.652 104.605 221.318 104.605C221.806 104.605 222.21 104.765 222.529 105.085C222.854 105.399 223.017 105.8 223.017 106.288V108.922H222.334V106.467C222.334 106.125 222.218 105.838 221.985 105.605C221.757 105.372 221.473 105.256 221.131 105.256C220.763 105.256 220.451 105.375 220.196 105.613C219.942 105.852 219.814 106.142 219.814 106.483V108.922H219.131ZM226.018 109.011C225.427 109.011 224.931 108.803 224.53 108.385C224.135 107.968 223.937 107.442 223.937 106.808C223.937 106.174 224.135 105.651 224.53 105.239C224.926 104.817 225.422 104.605 226.018 104.605C226.652 104.605 227.167 104.836 227.562 105.296V104.695H228.245V108.743C228.245 109.344 228.039 109.843 227.627 110.239C227.21 110.64 226.703 110.84 226.107 110.84C225.695 110.84 225.308 110.737 224.945 110.531C224.593 110.325 224.335 110.065 224.173 109.751L224.855 109.531C224.969 109.716 225.137 109.865 225.359 109.978C225.587 110.098 225.828 110.157 226.083 110.157C226.5 110.157 226.852 110.022 227.14 109.751C227.427 109.48 227.568 109.144 227.562 108.743V108.32C227.167 108.781 226.652 109.011 226.018 109.011ZM226.091 105.288C225.685 105.288 225.34 105.435 225.059 105.727C224.782 106.014 224.644 106.375 224.644 106.808C224.644 107.242 224.782 107.605 225.059 107.898C225.346 108.185 225.69 108.328 226.091 108.328C226.503 108.328 226.847 108.185 227.123 107.898C227.405 107.61 227.546 107.247 227.546 106.808C227.546 106.369 227.405 106.009 227.123 105.727C226.847 105.435 226.503 105.288 226.091 105.288Z" fill="white"/>
<path d="M138.489 243.047H141.325V243.52H138.995V244.758H141.038V245.231H138.995V246.514H141.353V246.986H138.489V243.047ZM143.173 243.998C143.612 243.998 143.968 244.158 144.242 244.476V244.06H144.715V246.986H144.242V246.57C143.968 246.889 143.612 247.048 143.173 247.048C142.764 247.048 142.421 246.904 142.143 246.615C141.869 246.326 141.732 245.962 141.732 245.523C141.732 245.084 141.869 244.722 142.143 244.437C142.417 244.144 142.76 243.998 143.173 243.998ZM143.224 244.471C142.942 244.471 142.704 244.572 142.509 244.775C142.318 244.974 142.222 245.223 142.222 245.523C142.222 245.823 142.318 246.075 142.509 246.277C142.708 246.476 142.946 246.576 143.224 246.576C143.509 246.576 143.747 246.476 143.938 246.277C144.133 246.078 144.231 245.827 144.231 245.523C144.231 245.219 144.133 244.97 143.938 244.775C143.747 244.572 143.509 244.471 143.224 244.471ZM145.984 245.332V246.986H145.511V244.06H145.984V244.555C146.205 244.184 146.552 243.998 147.025 243.998H147.104V244.521C147.044 244.499 146.975 244.488 146.896 244.488C146.637 244.488 146.421 244.568 146.249 244.73C146.072 244.895 145.984 245.095 145.984 245.332ZM147.622 246.986V244.06H148.094V244.55C148.327 244.182 148.674 243.998 149.136 243.998C149.473 243.998 149.753 244.109 149.974 244.33C150.199 244.548 150.312 244.825 150.312 245.163V246.986H149.839V245.287C149.839 245.05 149.758 244.852 149.597 244.69C149.439 244.529 149.242 244.448 149.006 244.448C148.751 244.448 148.535 244.531 148.359 244.696C148.183 244.861 148.094 245.062 148.094 245.298V246.986H147.622ZM151.573 246.986H151.1V244.06H151.573V246.986ZM151.1 243.582C151.04 243.518 151.01 243.439 151.01 243.345C151.01 243.251 151.04 243.175 151.1 243.115C151.164 243.051 151.243 243.019 151.337 243.019C151.431 243.019 151.509 243.051 151.573 243.115C151.637 243.175 151.669 243.251 151.669 243.345C151.669 243.439 151.637 243.518 151.573 243.582C151.509 243.642 151.431 243.672 151.337 243.672C151.243 243.672 151.164 243.642 151.1 243.582ZM152.37 246.986V244.06H152.843V244.55C153.075 244.182 153.422 243.998 153.884 243.998C154.221 243.998 154.501 244.109 154.722 244.33C154.947 244.548 155.06 244.825 155.06 245.163V246.986H154.587V245.287C154.587 245.05 154.507 244.852 154.345 244.69C154.188 244.529 153.991 244.448 153.754 244.448C153.499 244.448 153.284 244.531 153.107 244.696C152.931 244.861 152.843 245.062 152.843 245.298V246.986H152.37ZM157.137 247.048C156.729 247.048 156.385 246.904 156.108 246.615C155.834 246.326 155.697 245.962 155.697 245.523C155.697 245.084 155.834 244.722 156.108 244.437C156.382 244.144 156.725 243.998 157.137 243.998C157.576 243.998 157.933 244.158 158.207 244.476V244.06H158.679V246.863C158.679 247.279 158.537 247.624 158.252 247.898C157.963 248.176 157.612 248.314 157.199 248.314C156.914 248.314 156.646 248.243 156.395 248.101C156.151 247.958 155.973 247.778 155.86 247.56L156.333 247.408C156.412 247.536 156.528 247.639 156.682 247.718C156.839 247.8 157.006 247.842 157.183 247.842C157.471 247.842 157.715 247.748 157.914 247.56C158.113 247.373 158.21 247.14 158.207 246.863V246.57C157.933 246.889 157.576 247.048 157.137 247.048ZM157.188 244.471C156.907 244.471 156.669 244.572 156.473 244.775C156.282 244.974 156.186 245.223 156.186 245.523C156.186 245.823 156.282 246.075 156.473 246.277C156.672 246.476 156.911 246.576 157.188 246.576C157.473 246.576 157.711 246.476 157.903 246.277C158.098 246.078 158.195 245.827 158.195 245.523C158.195 245.219 158.098 244.97 157.903 244.775C157.711 244.572 157.473 244.471 157.188 244.471Z" fill="white"/>
<defs>
<filter id="filter0_b_5_919" x="-5.62759" y="-5.62759" width="395.182" height="283.255" filterUnits="userSpaceOnUse" color-interpolation-filters="sRGB">
<feFlood flood-opacity="0" result="BackgroundImageFix"/>
<feGaussianBlur in="BackgroundImage" stdDeviation="2.81379"/>
<feComposite in2="SourceAlpha" operator="in" result="effect1_backgroundBlur_5_919"/>
<feBlend mode="normal" in="SourceGraphic" in2="effect1_backgroundBlur_5_919" result="shape"/>
</filter>
<radialGradient id="paint0_radial_5_919" cx="0" cy="0" r="1" gradientUnits="userSpaceOnUse" gradientTransform="translate(204.469 114.74) rotate(92.3003) scale(148 208.901)">
<stop stop-color="#40539D"/>
<stop offset="1" stop-color="#605CFF" stop-opacity="0"/>
</radialGradient>
</defs>
</svg>
