<svg width="579" height="443" viewBox="0 0 579 443" fill="none" xmlns="http://www.w3.org/2000/svg">
<g filter="url(#filter0_d_2_324)">
<line x1="185.335" y1="169.602" x2="266.167" y2="169.585" stroke="#5452F6" stroke-width="1.66681"/>
<path d="M257.832 162.002L266.584 169.917L257.835 177.42" stroke="#5452F6" stroke-width="1.66681" stroke-linecap="round" stroke-linejoin="round"/>
<circle cx="181.585" cy="170.02" r="4.58372" stroke="#5452F6" stroke-width="1.66681"/>
<path d="M432.335 171.601L479.164 171.591C497.575 171.587 512.497 156.659 512.493 138.248L512.485 95.6684" stroke="#5452F6" stroke-width="1.66681" stroke-linecap="round" stroke-linejoin="round"/>
<path d="M511.849 94.7017L505.811 101.36C505.326 101.896 505.706 102.754 506.429 102.754L518.175 102.751C518.887 102.751 519.271 101.916 518.807 101.375L513.099 94.719C512.773 94.3382 512.186 94.33 511.849 94.7017Z" fill="#5452F6"/>
<circle cx="428.585" cy="172.018" r="4.58372" transform="rotate(-90.0117 428.585 172.018)" fill="#5452F6"/>
<line x1="341.335" y1="38.6056" x2="440.167" y2="38.5854" stroke="#5452F6" stroke-width="1.66681" stroke-dasharray="4.17 6.67"/>
<path d="M431.832 30.0017L440.584 37.9173L431.835 45.4197" stroke="#5452F6" stroke-width="1.66681" stroke-linecap="round" stroke-linejoin="round"/>
<circle cx="337.585" cy="39.0232" r="4.58372" stroke="#5452F6" stroke-width="1.66681"/>
<path d="M240.085 341.023L240.08 314.091C240.078 304.886 247.539 297.422 256.744 297.42L438.574 297.383C447.779 297.381 455.243 304.842 455.245 314.047L455.251 340.979" stroke="#5452F6" stroke-width="1.66681"/>
<line x1="346.742" y1="297.006" x2="346.733" y2="251.168" stroke="#5452F6" stroke-width="1.66681"/>
<path d="M463.188 332.643L455.475 340.979L448.165 332.646" stroke="#5452F6" stroke-width="1.66681" stroke-linecap="round" stroke-linejoin="round"/>
<path d="M248.023 332.687L240.31 341.023L233 332.69" stroke="#5452F6" stroke-width="1.66681" stroke-linecap="round" stroke-linejoin="round"/>
<circle cx="346.315" cy="246.585" r="4.58372" stroke="#5452F6" stroke-width="1.66681"/>
<g filter="url(#filter1_b_2_324)">
<path fill-rule="evenodd" clip-rule="evenodd" d="M480 0C470.611 0 463 7.61116 463 17V61C463 70.3888 470.611 78 480 78H601C610.389 78 618 70.3888 618 61V17C618 7.61116 610.389 0 601 0H480ZM21 130C11.6112 130 4 137.611 4 147V191C4 200.389 11.6112 208 21 208H142C151.389 208 159 200.389 159 191V147C159 137.611 151.389 130 142 130H21ZM240 357C218.461 357 201 374.461 201 396C201 417.539 218.461 435 240 435C261.539 435 279 417.539 279 396C279 374.461 261.539 357 240 357ZM417 396C417 374.461 434.461 357 456 357C477.539 357 495 374.461 495 396C495 417.539 477.539 435 456 435C434.461 435 417 417.539 417 396ZM201 31C201 21.6112 208.611 14 218 14H301C310.389 14 318 21.6112 318 31V44C318 53.3888 310.389 61 301 61H218C208.611 61 201 53.3888 201 44V31ZM349.971 113.726C347.366 111.123 343.145 111.124 340.542 113.728L288.726 165.565C286.123 168.169 286.124 172.391 288.728 174.994L340.565 226.809C343.169 229.413 347.391 229.412 349.994 226.807L401.809 174.971C404.413 172.366 404.412 168.145 401.807 165.542L349.971 113.726Z" fill="url(#paint0_radial_2_324)"/>
</g>
<path d="M79.0034 115L79.0032 70.8505C79.0031 52.4421 93.9241 37.518 112.333 37.5142L176.919 37.501" stroke="#5452F6" stroke-width="1.66681" stroke-linecap="round" stroke-linejoin="round"/>
<path d="M177.886 38.1357L171.23 44.1763C170.695 44.6622 169.837 44.2824 169.837 43.5593L169.834 31.8137C169.834 31.1017 170.669 30.7174 171.21 31.1807L177.868 36.8857C178.249 37.2121 178.258 37.7986 177.886 38.1357Z" fill="#5452F6"/>
<circle r="4.58372" transform="matrix(1 -0.000204516 -0.000204516 -1 78.5847 114.585)" fill="#5452F6"/>
<path d="M40.9443 164.931V178H43.9128V172.81H49.6259V170.084H43.9128V167.657H50.7087V164.931H40.9443ZM54.7368 178V168.292H51.9363V178H54.7368ZM52.0856 167.115C52.4217 167.433 52.8324 167.601 53.3365 167.601C53.8406 167.601 54.2514 167.433 54.5687 167.115C54.9048 166.798 55.0728 166.387 55.0728 165.883C55.0728 165.379 54.9048 164.968 54.5687 164.651C54.2514 164.334 53.8406 164.166 53.3365 164.166C52.8324 164.166 52.4217 164.334 52.0856 164.651C51.7682 164.968 51.6002 165.379 51.6002 165.883C51.6002 166.387 51.7682 166.798 52.0856 167.115ZM59.1126 168.292H56.3121V178H59.1126V172.772C59.1126 171.634 59.9527 170.775 61.0729 170.775C61.4836 170.775 61.8197 170.868 62.0811 171.036V168.049C60.7555 168.049 59.766 168.46 59.1126 169.3V168.292ZM70.5656 170.7C70.3229 169.038 68.9413 168.049 66.6822 168.049C64.3111 168.049 62.7429 169.02 62.7429 171.167C62.7429 172.604 63.4897 173.463 65.3006 173.967L67.0743 174.49C67.7277 174.677 68.0451 174.919 68.0451 175.237C68.0451 175.685 67.5224 175.946 66.7756 175.946C65.8607 175.946 65.3006 175.629 65.1139 174.975L62.5375 175.33C62.8175 177.179 64.2738 178.243 66.7196 178.243C69.128 178.243 70.7149 177.16 70.7149 175.125C70.7149 173.65 69.9121 172.754 67.9518 172.138L66.2155 171.578C65.7114 171.391 65.45 171.167 65.45 170.924C65.45 170.495 65.8234 170.289 66.5515 170.289C67.3543 170.289 67.8398 170.569 68.0078 171.111L70.5656 170.7ZM71.3025 170.719H72.628V174.901C72.628 175.778 72.9454 176.525 73.5989 177.123C74.2523 177.701 75.0738 178 76.026 178H77.6316V175.386H76.4927C75.8766 175.386 75.4285 174.957 75.4285 174.359V170.719H77.6316V168.292H75.4285V166.406H72.628V168.292H71.3025V170.719ZM92.7222 167.75C92.4795 166.873 91.9381 166.145 91.0606 165.566C90.2018 164.987 89.1749 164.688 87.9987 164.688C86.6731 164.688 85.5903 165.062 84.7501 165.808C83.9286 166.537 83.5179 167.507 83.5179 168.702C83.5179 169.468 83.7606 170.14 84.0407 170.607C84.3207 171.073 84.9742 171.522 85.3662 171.802C85.5716 171.932 85.8703 172.063 86.2624 172.231L87.1772 172.567C87.4013 172.623 87.7373 172.735 88.1667 172.866L88.3534 172.922C89.1002 173.164 89.5483 173.314 89.9777 173.687C90.2018 173.874 90.3138 174.079 90.3138 174.322C90.3138 175.013 89.455 175.517 88.3908 175.517C87.2146 175.517 86.3184 174.938 86.113 174.191L83.1445 174.901C83.4245 175.89 84.022 176.693 84.9742 177.309C85.9263 177.925 87.0652 178.243 88.3908 178.243C89.8284 178.243 91.0046 177.869 91.9194 177.104C92.8342 176.338 93.2823 175.33 93.2823 174.061C93.2076 172.455 92.5728 171.54 91.49 170.961C90.7432 170.513 90.3324 170.383 89.5296 170.14C88.4841 169.823 87.8307 169.617 87.5693 169.524C86.8412 169.225 86.4864 168.87 86.4864 168.478C86.4864 167.862 87.1585 167.414 88.0547 167.414C88.9322 167.414 89.623 167.862 89.791 168.441L92.7222 167.75ZM93.7466 170.719H95.0721V174.901C95.0721 175.778 95.3895 176.525 96.043 177.123C96.6964 177.701 97.5179 178 98.4701 178H100.076V175.386H98.9368C98.3207 175.386 97.8726 174.957 97.8726 174.359V170.719H100.076V168.292H97.8726V166.406H95.0721V168.292H93.7466V170.719ZM111.131 174.154C111.206 173.837 111.243 173.501 111.243 173.146C111.243 171.708 110.758 170.495 109.768 169.524C108.779 168.534 107.565 168.049 106.109 168.049C104.634 168.049 103.421 168.534 102.431 169.524C101.442 170.495 100.956 171.708 100.956 173.146C100.956 174.602 101.46 175.816 102.469 176.786C103.477 177.757 104.746 178.243 106.259 178.243C108.331 178.243 110.03 177.235 110.907 175.61L108.2 174.994C107.715 175.573 107.08 175.853 106.277 175.853C105.138 175.853 104.224 175.181 103.906 174.154H111.131ZM103.925 172.082C104.242 171.092 105.12 170.439 106.109 170.439C107.155 170.439 108.032 171.092 108.387 172.082H103.925ZM115.177 182.201V177.347C115.98 177.944 116.858 178.243 117.847 178.243C119.154 178.243 120.255 177.757 121.133 176.786C122.01 175.797 122.459 174.583 122.459 173.146C122.459 171.69 122.01 170.476 121.133 169.505C120.255 168.534 119.154 168.049 117.847 168.049C116.839 168.049 115.943 168.348 115.177 168.945V168.292H112.377V182.201H115.177ZM117.38 170.812C118.575 170.812 119.527 171.82 119.527 173.164C119.527 173.818 119.322 174.359 118.893 174.807C118.482 175.256 117.978 175.48 117.38 175.48C116.167 175.48 115.215 174.453 115.215 173.164C115.215 171.82 116.167 170.812 117.38 170.812Z" fill="white"/>
<path d="M226.112 32.785L224.955 33.123C224.877 32.7763 224.652 32.486 224.279 32.252C223.915 32.0093 223.486 31.888 222.992 31.888C222.446 31.888 221.996 32.0223 221.64 32.291C221.285 32.551 221.107 32.8803 221.107 33.279C221.107 33.7123 221.35 34.0503 221.835 34.293C222.217 34.475 222.802 34.6657 223.59 34.865C224.232 35.0297 224.73 35.1987 225.085 35.372C225.917 35.762 226.355 36.4423 226.398 37.413C226.398 38.2277 226.086 38.8863 225.462 39.389C224.856 39.8917 224.067 40.143 223.096 40.143C222.221 40.143 221.476 39.9393 220.86 39.532C220.245 39.1333 219.855 38.6133 219.69 37.972L220.86 37.621C220.93 38.0197 221.172 38.3533 221.588 38.622C222.013 38.882 222.516 39.012 223.096 39.012C223.703 39.012 224.21 38.8733 224.617 38.596C225.025 38.31 225.228 37.946 225.228 37.504C225.228 37.0533 225.012 36.7153 224.578 36.49C224.197 36.2907 223.759 36.1303 223.265 36.009L222.719 35.866L222.212 35.71L221.679 35.528C221.653 35.5193 221.614 35.5063 221.562 35.489C221.519 35.463 221.463 35.437 221.393 35.411C221.324 35.3763 221.263 35.346 221.211 35.32C220.995 35.216 220.739 35.0297 220.444 34.761C220.15 34.4663 219.976 33.9983 219.924 33.357C219.924 32.5857 220.21 31.9617 220.782 31.485C221.363 30.9997 222.095 30.757 222.979 30.757C223.777 30.757 224.457 30.9477 225.02 31.329C225.592 31.7017 225.956 32.187 226.112 32.785ZM234.501 36.997H228.69C228.768 37.6037 229.037 38.1107 229.496 38.518C229.947 38.9167 230.502 39.116 231.16 39.116C232.018 39.116 232.686 38.791 233.162 38.141L234.228 38.479C233.916 38.999 233.487 39.4063 232.941 39.701C232.404 39.9957 231.81 40.143 231.16 40.143C230.138 40.143 229.28 39.8093 228.586 39.142C227.902 38.466 227.559 37.6253 227.559 36.62C227.559 35.6147 227.893 34.7783 228.56 34.111C229.228 33.435 230.055 33.097 231.043 33.097C232.04 33.097 232.868 33.435 233.526 34.111C234.194 34.7783 234.527 35.6147 234.527 36.62C234.527 36.646 234.519 36.7717 234.501 36.997ZM228.703 36.113H233.396C233.292 35.5323 233.019 35.0513 232.577 34.67C232.144 34.2973 231.624 34.111 231.017 34.111C230.428 34.111 229.921 34.2973 229.496 34.67C229.072 35.0427 228.807 35.5237 228.703 36.113ZM242.317 35.138L241.225 35.463C241.026 35.073 240.735 34.7653 240.354 34.54C239.981 34.306 239.561 34.189 239.093 34.189C238.408 34.189 237.841 34.423 237.39 34.891C236.931 35.3503 236.701 35.9267 236.701 36.62C236.701 37.3047 236.931 37.8853 237.39 38.362C237.849 38.8213 238.417 39.051 239.093 39.051C239.561 39.051 239.981 38.9383 240.354 38.713C240.735 38.479 241.026 38.167 241.225 37.777L242.317 38.102C242.04 38.7347 241.611 39.233 241.03 39.597C240.458 39.961 239.812 40.143 239.093 40.143C238.096 40.143 237.256 39.8093 236.571 39.142C235.904 38.4573 235.57 37.6167 235.57 36.62C235.57 35.6147 235.904 34.7783 236.571 34.111C237.247 33.435 238.088 33.097 239.093 33.097C239.812 33.097 240.458 33.279 241.03 33.643C241.611 34.007 242.04 34.5053 242.317 35.138ZM244.353 39.142C243.686 38.4573 243.352 37.6167 243.352 36.62C243.352 35.6147 243.686 34.7783 244.353 34.111C245.029 33.435 245.87 33.097 246.875 33.097C247.881 33.097 248.721 33.435 249.397 34.111C250.073 34.7783 250.411 35.6147 250.411 36.62C250.411 37.6253 250.073 38.466 249.397 39.142C248.713 39.8093 247.872 40.143 246.875 40.143C245.879 40.143 245.038 39.8093 244.353 39.142ZM246.875 39.051C247.56 39.051 248.132 38.8213 248.591 38.362C249.051 37.8853 249.28 37.3047 249.28 36.62C249.28 35.9267 249.051 35.3503 248.591 34.891C248.132 34.423 247.56 34.189 246.875 34.189C246.191 34.189 245.623 34.423 245.172 34.891C244.713 35.3503 244.483 35.9267 244.483 36.62C244.483 37.3047 244.713 37.8853 245.172 38.362C245.632 38.8213 246.199 39.051 246.875 39.051ZM251.904 40V33.24H252.996V34.371C253.534 33.5217 254.335 33.097 255.401 33.097C256.181 33.097 256.827 33.3527 257.338 33.864C257.858 34.3667 258.118 35.008 258.118 35.788V40H257.026V36.074C257.026 35.528 256.84 35.0687 256.467 34.696C256.103 34.3233 255.648 34.137 255.102 34.137C254.513 34.137 254.015 34.3277 253.607 34.709C253.2 35.0903 252.996 35.554 252.996 36.1V40H251.904ZM262.918 33.097C263.932 33.097 264.755 33.4653 265.388 34.202V30.25H266.48V40H265.388V39.038C264.755 39.7747 263.932 40.143 262.918 40.143C261.973 40.143 261.18 39.8093 260.539 39.142C259.906 38.4747 259.59 37.634 259.59 36.62C259.59 35.606 259.906 34.7697 260.539 34.111C261.171 33.435 261.964 33.097 262.918 33.097ZM263.035 34.189C262.385 34.189 261.834 34.423 261.384 34.891C260.942 35.3503 260.721 35.9267 260.721 36.62C260.721 37.3133 260.942 37.894 261.384 38.362C261.843 38.8213 262.393 39.051 263.035 39.051C263.693 39.051 264.244 38.8213 264.686 38.362C265.136 37.9027 265.362 37.322 265.362 36.62C265.362 35.918 265.136 35.3417 264.686 34.891C264.244 34.423 263.693 34.189 263.035 34.189ZM278.049 32.785L276.892 33.123C276.814 32.7763 276.589 32.486 276.216 32.252C275.852 32.0093 275.423 31.888 274.929 31.888C274.383 31.888 273.932 32.0223 273.577 32.291C273.222 32.551 273.044 32.8803 273.044 33.279C273.044 33.7123 273.287 34.0503 273.772 34.293C274.153 34.475 274.738 34.6657 275.527 34.865C276.168 35.0297 276.667 35.1987 277.022 35.372C277.854 35.762 278.292 36.4423 278.335 37.413C278.335 38.2277 278.023 38.8863 277.399 39.389C276.792 39.8917 276.004 40.143 275.033 40.143C274.158 40.143 273.412 39.9393 272.797 39.532C272.182 39.1333 271.792 38.6133 271.627 37.972L272.797 37.621C272.866 38.0197 273.109 38.3533 273.525 38.622C273.95 38.882 274.452 39.012 275.033 39.012C275.64 39.012 276.147 38.8733 276.554 38.596C276.961 38.31 277.165 37.946 277.165 37.504C277.165 37.0533 276.948 36.7153 276.515 36.49C276.134 36.2907 275.696 36.1303 275.202 36.009L274.656 35.866L274.149 35.71L273.616 35.528C273.59 35.5193 273.551 35.5063 273.499 35.489C273.456 35.463 273.399 35.437 273.33 35.411C273.261 35.3763 273.2 35.346 273.148 35.32C272.931 35.216 272.676 35.0297 272.381 34.761C272.086 34.4663 271.913 33.9983 271.861 33.357C271.861 32.5857 272.147 31.9617 272.719 31.485C273.3 30.9997 274.032 30.757 274.916 30.757C275.713 30.757 276.394 30.9477 276.957 31.329C277.529 31.7017 277.893 32.187 278.049 32.785ZM279.119 34.202V33.24H280.211V31.888H281.303V33.24H283.188V34.202H281.303V37.881C281.303 38.1843 281.394 38.44 281.576 38.648C281.766 38.8473 282 38.947 282.278 38.947H283.188V40H282.2C281.636 40 281.164 39.8093 280.783 39.428C280.401 39.0467 280.211 38.5743 280.211 38.011V34.202H279.119ZM291.097 36.997H285.286C285.364 37.6037 285.633 38.1107 286.092 38.518C286.543 38.9167 287.097 39.116 287.756 39.116C288.614 39.116 289.281 38.791 289.758 38.141L290.824 38.479C290.512 38.999 290.083 39.4063 289.537 39.701C289 39.9957 288.406 40.143 287.756 40.143C286.733 40.143 285.875 39.8093 285.182 39.142C284.497 38.466 284.155 37.6253 284.155 36.62C284.155 35.6147 284.489 34.7783 285.156 34.111C285.823 33.435 286.651 33.097 287.639 33.097C288.636 33.097 289.463 33.435 290.122 34.111C290.789 34.7783 291.123 35.6147 291.123 36.62C291.123 36.646 291.114 36.7717 291.097 36.997ZM285.299 36.113H289.992C289.888 35.5323 289.615 35.0513 289.173 34.67C288.74 34.2973 288.22 34.111 287.613 34.111C287.024 34.111 286.517 34.2973 286.092 34.67C285.667 35.0427 285.403 35.5237 285.299 36.113ZM293.609 42.925H292.517V33.24H293.609V34.202C294.241 33.4653 295.06 33.097 296.066 33.097C297.019 33.097 297.812 33.435 298.445 34.111C299.086 34.7783 299.407 35.6147 299.407 36.62C299.407 37.6167 299.086 38.4573 298.445 39.142C297.803 39.8093 297.01 40.143 296.066 40.143C295.06 40.143 294.241 39.7747 293.609 39.038V42.925ZM295.949 34.189C295.299 34.189 294.748 34.423 294.298 34.891C293.856 35.3503 293.635 35.9267 293.635 36.62C293.635 37.3133 293.856 37.894 294.298 38.362C294.757 38.8213 295.307 39.051 295.949 39.051C296.607 39.051 297.158 38.8213 297.6 38.362C298.05 37.9027 298.276 37.322 298.276 36.62C298.276 35.918 298.05 35.3417 297.6 34.891C297.158 34.423 296.607 34.189 295.949 34.189Z" fill="white"/>
<path d="M325.104 165.992H321.698V164.9H329.68V165.992H326.274V174H325.104V165.992ZM331.005 170.178V174H329.913V167.24H331.005V168.384C331.516 167.526 332.318 167.097 333.41 167.097H333.592V168.306C333.453 168.254 333.293 168.228 333.111 168.228C332.513 168.228 332.014 168.414 331.616 168.787C331.208 169.168 331.005 169.632 331.005 170.178ZM337.447 167.097C338.461 167.097 339.285 167.465 339.917 168.202V167.24H341.009V174H339.917V173.038C339.285 173.775 338.461 174.143 337.447 174.143C336.503 174.143 335.71 173.809 335.068 173.142C334.436 172.475 334.119 171.634 334.119 170.62C334.119 169.606 334.436 168.77 335.068 168.111C335.701 167.435 336.494 167.097 337.447 167.097ZM337.564 168.189C336.914 168.189 336.364 168.423 335.913 168.891C335.471 169.35 335.25 169.927 335.25 170.62C335.25 171.313 335.471 171.894 335.913 172.362C336.373 172.821 336.923 173.051 337.564 173.051C338.223 173.051 338.773 172.821 339.215 172.362C339.666 171.903 339.891 171.322 339.891 170.62C339.891 169.918 339.666 169.342 339.215 168.891C338.773 168.423 338.223 168.189 337.564 168.189ZM345.826 167.097C346.84 167.097 347.664 167.465 348.296 168.202V164.25H349.388V174H348.296V173.038C347.664 173.775 346.84 174.143 345.826 174.143C344.882 174.143 344.089 173.809 343.447 173.142C342.815 172.475 342.498 171.634 342.498 170.62C342.498 169.606 342.815 168.77 343.447 168.111C344.08 167.435 344.873 167.097 345.826 167.097ZM345.943 168.189C345.293 168.189 344.743 168.423 344.292 168.891C343.85 169.35 343.629 169.927 343.629 170.62C343.629 171.313 343.85 171.894 344.292 172.362C344.752 172.821 345.302 173.051 345.943 173.051C346.602 173.051 347.152 172.821 347.594 172.362C348.045 171.903 348.27 171.322 348.27 170.62C348.27 169.918 348.045 169.342 347.594 168.891C347.152 168.423 346.602 168.189 345.943 168.189ZM352.32 174H351.228V167.24H352.32V174ZM351.228 166.135C351.09 165.988 351.02 165.806 351.02 165.589C351.02 165.372 351.09 165.195 351.228 165.056C351.376 164.909 351.558 164.835 351.774 164.835C351.991 164.835 352.173 164.909 352.32 165.056C352.468 165.195 352.541 165.372 352.541 165.589C352.541 165.806 352.468 165.988 352.32 166.135C352.173 166.274 351.991 166.343 351.774 166.343C351.558 166.343 351.376 166.274 351.228 166.135ZM354.161 174V167.24H355.253V168.371C355.79 167.522 356.592 167.097 357.658 167.097C358.438 167.097 359.083 167.353 359.595 167.864C360.115 168.367 360.375 169.008 360.375 169.788V174H359.283V170.074C359.283 169.528 359.096 169.069 358.724 168.696C358.36 168.323 357.905 168.137 357.359 168.137C356.769 168.137 356.271 168.328 355.864 168.709C355.456 169.09 355.253 169.554 355.253 170.1V174H354.161ZM365.174 174.143C364.229 174.143 363.436 173.809 362.795 173.142C362.162 172.475 361.846 171.634 361.846 170.62C361.846 169.606 362.162 168.77 362.795 168.111C363.428 167.435 364.221 167.097 365.174 167.097C366.188 167.097 367.011 167.465 367.644 168.202V167.24H368.736V173.714C368.736 174.676 368.407 175.473 367.748 176.106C367.081 176.747 366.27 177.068 365.317 177.068C364.658 177.068 364.039 176.903 363.458 176.574C362.895 176.245 362.483 175.829 362.223 175.326L363.315 174.975C363.497 175.27 363.766 175.508 364.121 175.69C364.485 175.881 364.871 175.976 365.278 175.976C365.945 175.976 366.509 175.759 366.968 175.326C367.427 174.893 367.653 174.355 367.644 173.714V173.038C367.011 173.775 366.188 174.143 365.174 174.143ZM365.291 168.189C364.641 168.189 364.091 168.423 363.64 168.891C363.198 169.35 362.977 169.927 362.977 170.62C362.977 171.313 363.198 171.894 363.64 172.362C364.099 172.821 364.65 173.051 365.291 173.051C365.95 173.051 366.5 172.821 366.942 172.362C367.393 171.903 367.618 171.322 367.618 170.62C367.618 169.918 367.393 169.342 366.942 168.891C366.5 168.423 365.95 168.189 365.291 168.189Z" fill="white"/>
<path d="M516.155 34.992H512.749V33.9H520.731V34.992H517.325V43H516.155V34.992ZM522.005 43V33.25H523.097V37.371C523.634 36.5217 524.44 36.097 525.515 36.097C526.295 36.097 526.949 36.3527 527.478 36.864C527.998 37.3667 528.258 38.008 528.258 38.788V43H527.166V39.074C527.166 38.528 526.98 38.0687 526.607 37.696C526.234 37.3233 525.771 37.137 525.216 37.137C524.618 37.137 524.115 37.3277 523.708 37.709C523.301 38.0903 523.097 38.554 523.097 39.1V43H522.005ZM531.171 43H530.079V36.24H531.171V43ZM530.079 35.135C529.941 34.9877 529.871 34.8057 529.871 34.589C529.871 34.3723 529.941 34.1947 530.079 34.056C530.227 33.9087 530.409 33.835 530.625 33.835C530.842 33.835 531.024 33.9087 531.171 34.056C531.319 34.1947 531.392 34.3723 531.392 34.589C531.392 34.8057 531.319 34.9877 531.171 35.135C531.024 35.2737 530.842 35.343 530.625 35.343C530.409 35.343 530.227 35.2737 530.079 35.135ZM534.104 39.178V43H533.012V36.24H534.104V37.384C534.615 36.526 535.417 36.097 536.509 36.097H536.691V37.306C536.552 37.254 536.392 37.228 536.21 37.228C535.612 37.228 535.114 37.4143 534.715 37.787C534.308 38.1683 534.104 38.632 534.104 39.178ZM540.546 36.097C541.56 36.097 542.384 36.4653 543.016 37.202V33.25H544.108V43H543.016V42.038C542.384 42.7747 541.56 43.143 540.546 43.143C539.602 43.143 538.809 42.8093 538.167 42.142C537.535 41.4747 537.218 40.634 537.218 39.62C537.218 38.606 537.535 37.7697 538.167 37.111C538.8 36.435 539.593 36.097 540.546 36.097ZM540.663 37.189C540.013 37.189 539.463 37.423 539.012 37.891C538.57 38.3503 538.349 38.9267 538.349 39.62C538.349 40.3133 538.57 40.894 539.012 41.362C539.472 41.8213 540.022 42.051 540.663 42.051C541.322 42.051 541.872 41.8213 542.314 41.362C542.765 40.9027 542.99 40.322 542.99 39.62C542.99 38.918 542.765 38.3417 542.314 37.891C541.872 37.423 541.322 37.189 540.663 37.189ZM555.678 35.785L554.521 36.123C554.443 35.7763 554.217 35.486 553.845 35.252C553.481 35.0093 553.052 34.888 552.558 34.888C552.012 34.888 551.561 35.0223 551.206 35.291C550.85 35.551 550.673 35.8803 550.673 36.279C550.673 36.7123 550.915 37.0503 551.401 37.293C551.782 37.475 552.367 37.6657 553.156 37.865C553.797 38.0297 554.295 38.1987 554.651 38.372C555.483 38.762 555.92 39.4423 555.964 40.413C555.964 41.2277 555.652 41.8863 555.028 42.389C554.421 42.8917 553.632 43.143 552.662 43.143C551.786 43.143 551.041 42.9393 550.426 42.532C549.81 42.1333 549.42 41.6133 549.256 40.972L550.426 40.621C550.495 41.0197 550.738 41.3533 551.154 41.622C551.578 41.882 552.081 42.012 552.662 42.012C553.268 42.012 553.775 41.8733 554.183 41.596C554.59 41.31 554.794 40.946 554.794 40.504C554.794 40.0533 554.577 39.7153 554.144 39.49C553.762 39.2907 553.325 39.1303 552.831 39.009L552.285 38.866L551.778 38.71L551.245 38.528C551.219 38.5193 551.18 38.5063 551.128 38.489C551.084 38.463 551.028 38.437 550.959 38.411C550.889 38.3763 550.829 38.346 550.777 38.32C550.56 38.216 550.304 38.0297 550.01 37.761C549.715 37.4663 549.542 36.9983 549.49 36.357C549.49 35.5857 549.776 34.9617 550.348 34.485C550.928 33.9997 551.661 33.757 552.545 33.757C553.342 33.757 554.022 33.9477 554.586 34.329C555.158 34.7017 555.522 35.187 555.678 35.785ZM556.748 37.202V36.24H557.84V34.888H558.932V36.24H560.817V37.202H558.932V40.881C558.932 41.1843 559.023 41.44 559.205 41.648C559.395 41.8473 559.629 41.947 559.907 41.947H560.817V43H559.829C559.265 43 558.793 42.8093 558.412 42.428C558.03 42.0467 557.84 41.5743 557.84 41.011V37.202H556.748ZM568.726 39.997H562.915C562.993 40.6037 563.262 41.1107 563.721 41.518C564.172 41.9167 564.726 42.116 565.385 42.116C566.243 42.116 566.91 41.791 567.387 41.141L568.453 41.479C568.141 41.999 567.712 42.4063 567.166 42.701C566.629 42.9957 566.035 43.143 565.385 43.143C564.362 43.143 563.504 42.8093 562.811 42.142C562.126 41.466 561.784 40.6253 561.784 39.62C561.784 38.6147 562.118 37.7783 562.785 37.111C563.452 36.435 564.28 36.097 565.268 36.097C566.265 36.097 567.092 36.435 567.751 37.111C568.418 37.7783 568.752 38.6147 568.752 39.62C568.752 39.646 568.743 39.7717 568.726 39.997ZM562.928 39.113H567.621C567.517 38.5323 567.244 38.0513 566.802 37.67C566.369 37.2973 565.849 37.111 565.242 37.111C564.653 37.111 564.146 37.2973 563.721 37.67C563.296 38.0427 563.032 38.5237 562.928 39.113ZM571.238 45.925H570.146V36.24H571.238V37.202C571.87 36.4653 572.689 36.097 573.695 36.097C574.648 36.097 575.441 36.435 576.074 37.111C576.715 37.7783 577.036 38.6147 577.036 39.62C577.036 40.6167 576.715 41.4573 576.074 42.142C575.432 42.8093 574.639 43.143 573.695 43.143C572.689 43.143 571.87 42.7747 571.238 42.038V45.925ZM573.578 37.189C572.928 37.189 572.377 37.423 571.927 37.891C571.485 38.3503 571.264 38.9267 571.264 39.62C571.264 40.3133 571.485 40.894 571.927 41.362C572.386 41.8213 572.936 42.051 573.578 42.051C574.236 42.051 574.787 41.8213 575.229 41.362C575.679 40.9027 575.905 40.322 575.905 39.62C575.905 38.918 575.679 38.3417 575.229 37.891C574.787 37.423 574.236 37.189 573.578 37.189Z" fill="white"/>
<path d="M224.889 388.7H229.425V389.456H225.699V391.436H228.966V392.192H225.699V394.244H229.47V395H224.889V388.7ZM232.38 390.221C233.082 390.221 233.652 390.476 234.09 390.986V390.32H234.846V395H234.09V394.334C233.652 394.844 233.082 395.099 232.38 395.099C231.726 395.099 231.177 394.868 230.733 394.406C230.295 393.944 230.076 393.362 230.076 392.66C230.076 391.958 230.295 391.379 230.733 390.923C231.171 390.455 231.72 390.221 232.38 390.221ZM232.461 390.977C232.011 390.977 231.63 391.139 231.318 391.463C231.012 391.781 230.859 392.18 230.859 392.66C230.859 393.14 231.012 393.542 231.318 393.866C231.636 394.184 232.017 394.343 232.461 394.343C232.917 394.343 233.298 394.184 233.604 393.866C233.916 393.548 234.072 393.146 234.072 392.66C234.072 392.174 233.916 391.775 233.604 391.463C233.298 391.139 232.917 390.977 232.461 390.977ZM236.875 392.354V395H236.119V390.32H236.875V391.112C237.229 390.518 237.784 390.221 238.54 390.221H238.666V391.058C238.57 391.022 238.459 391.004 238.333 391.004C237.919 391.004 237.574 391.133 237.298 391.391C237.016 391.655 236.875 391.976 236.875 392.354ZM239.494 395V390.32H240.25V391.103C240.622 390.515 241.177 390.221 241.915 390.221C242.455 390.221 242.902 390.398 243.256 390.752C243.616 391.1 243.796 391.544 243.796 392.084V395H243.04V392.282C243.04 391.904 242.911 391.586 242.653 391.328C242.401 391.07 242.086 390.941 241.708 390.941C241.3 390.941 240.955 391.073 240.673 391.337C240.391 391.601 240.25 391.922 240.25 392.3V395H239.494ZM245.814 395H245.058V390.32H245.814V395ZM245.058 389.555C244.962 389.453 244.914 389.327 244.914 389.177C244.914 389.027 244.962 388.904 245.058 388.808C245.16 388.706 245.286 388.655 245.436 388.655C245.586 388.655 245.712 388.706 245.814 388.808C245.916 388.904 245.967 389.027 245.967 389.177C245.967 389.327 245.916 389.453 245.814 389.555C245.712 389.651 245.586 389.699 245.436 389.699C245.286 389.699 245.16 389.651 245.058 389.555ZM247.088 395V390.32H247.844V391.103C248.216 390.515 248.771 390.221 249.509 390.221C250.049 390.221 250.496 390.398 250.85 390.752C251.21 391.1 251.39 391.544 251.39 392.084V395H250.634V392.282C250.634 391.904 250.505 391.586 250.247 391.328C249.995 391.07 249.68 390.941 249.302 390.941C248.894 390.941 248.549 391.073 248.267 391.337C247.985 391.601 247.844 391.922 247.844 392.3V395H247.088ZM254.713 395.099C254.059 395.099 253.51 394.868 253.066 394.406C252.628 393.944 252.409 393.362 252.409 392.66C252.409 391.958 252.628 391.379 253.066 390.923C253.504 390.455 254.053 390.221 254.713 390.221C255.415 390.221 255.985 390.476 256.423 390.986V390.32H257.179V394.802C257.179 395.468 256.951 396.02 256.495 396.458C256.033 396.902 255.472 397.124 254.812 397.124C254.356 397.124 253.927 397.01 253.525 396.782C253.135 396.554 252.85 396.266 252.67 395.918L253.426 395.675C253.552 395.879 253.738 396.044 253.984 396.17C254.236 396.302 254.503 396.368 254.785 396.368C255.247 396.368 255.637 396.218 255.955 395.918C256.273 395.618 256.429 395.246 256.423 394.802V394.334C255.985 394.844 255.415 395.099 254.713 395.099ZM254.794 390.977C254.344 390.977 253.963 391.139 253.651 391.463C253.345 391.781 253.192 392.18 253.192 392.66C253.192 393.14 253.345 393.542 253.651 393.866C253.969 394.184 254.35 394.343 254.794 394.343C255.25 394.343 255.631 394.184 255.937 393.866C256.249 393.548 256.405 393.146 256.405 392.66C256.405 392.174 256.249 391.775 255.937 391.463C255.631 391.139 255.25 390.977 254.794 390.977Z" fill="white"/>
<path d="M446.123 392.005L445.322 392.239C445.268 391.999 445.112 391.798 444.854 391.636C444.602 391.468 444.305 391.384 443.963 391.384C443.585 391.384 443.273 391.477 443.027 391.663C442.781 391.843 442.658 392.071 442.658 392.347C442.658 392.647 442.826 392.881 443.162 393.049C443.426 393.175 443.831 393.307 444.377 393.445C444.821 393.559 445.166 393.676 445.412 393.796C445.988 394.066 446.291 394.537 446.321 395.209C446.321 395.773 446.105 396.229 445.673 396.577C445.253 396.925 444.707 397.099 444.035 397.099C443.429 397.099 442.913 396.958 442.487 396.676C442.061 396.4 441.791 396.04 441.677 395.596L442.487 395.353C442.535 395.629 442.703 395.86 442.991 396.046C443.285 396.226 443.633 396.316 444.035 396.316C444.455 396.316 444.806 396.22 445.088 396.028C445.37 395.83 445.511 395.578 445.511 395.272C445.511 394.96 445.361 394.726 445.061 394.57C444.797 394.432 444.494 394.321 444.152 394.237L443.774 394.138L443.423 394.03L443.054 393.904C443.036 393.898 443.009 393.889 442.973 393.877C442.943 393.859 442.904 393.841 442.856 393.823C442.808 393.799 442.766 393.778 442.73 393.76C442.58 393.688 442.403 393.559 442.199 393.373C441.995 393.169 441.875 392.845 441.839 392.401C441.839 391.867 442.037 391.435 442.433 391.105C442.835 390.769 443.342 390.601 443.954 390.601C444.506 390.601 444.977 390.733 445.367 390.997C445.763 391.255 446.015 391.591 446.123 392.005ZM446.864 392.986V392.32H447.62V391.384H448.376V392.32H449.681V392.986H448.376V395.533C448.376 395.743 448.439 395.92 448.565 396.064C448.697 396.202 448.859 396.271 449.051 396.271H449.681V397H448.997C448.607 397 448.28 396.868 448.016 396.604C447.752 396.34 447.62 396.013 447.62 395.623V392.986H446.864ZM452.655 392.221C453.357 392.221 453.927 392.476 454.365 392.986V392.32H455.121V397H454.365V396.334C453.927 396.844 453.357 397.099 452.655 397.099C452.001 397.099 451.452 396.868 451.008 396.406C450.57 395.944 450.351 395.362 450.351 394.66C450.351 393.958 450.57 393.379 451.008 392.923C451.446 392.455 451.995 392.221 452.655 392.221ZM452.736 392.977C452.286 392.977 451.905 393.139 451.593 393.463C451.287 393.781 451.134 394.18 451.134 394.66C451.134 395.14 451.287 395.542 451.593 395.866C451.911 396.184 452.292 396.343 452.736 396.343C453.192 396.343 453.573 396.184 453.879 395.866C454.191 395.548 454.347 395.146 454.347 394.66C454.347 394.174 454.191 393.775 453.879 393.463C453.573 393.139 453.192 392.977 452.736 392.977ZM456.394 397V390.25H457.15V397H456.394ZM460.237 397H459.292L457.186 394.579L459.112 392.32H460.039L458.122 394.579L460.237 397ZM461.782 397H461.026V392.32H461.782V397ZM461.026 391.555C460.93 391.453 460.882 391.327 460.882 391.177C460.882 391.027 460.93 390.904 461.026 390.808C461.128 390.706 461.254 390.655 461.404 390.655C461.554 390.655 461.68 390.706 461.782 390.808C461.884 390.904 461.935 391.027 461.935 391.177C461.935 391.327 461.884 391.453 461.782 391.555C461.68 391.651 461.554 391.699 461.404 391.699C461.254 391.699 461.128 391.651 461.026 391.555ZM463.056 397V392.32H463.812V393.103C464.184 392.515 464.739 392.221 465.477 392.221C466.017 392.221 466.464 392.398 466.818 392.752C467.178 393.1 467.358 393.544 467.358 394.084V397H466.602V394.282C466.602 393.904 466.473 393.586 466.215 393.328C465.963 393.07 465.648 392.941 465.27 392.941C464.862 392.941 464.517 393.073 464.235 393.337C463.953 393.601 463.812 393.922 463.812 394.3V397H463.056ZM470.681 397.099C470.027 397.099 469.478 396.868 469.034 396.406C468.596 395.944 468.377 395.362 468.377 394.66C468.377 393.958 468.596 393.379 469.034 392.923C469.472 392.455 470.021 392.221 470.681 392.221C471.383 392.221 471.953 392.476 472.391 392.986V392.32H473.147V396.802C473.147 397.468 472.919 398.02 472.463 398.458C472.001 398.902 471.44 399.124 470.78 399.124C470.324 399.124 469.895 399.01 469.493 398.782C469.103 398.554 468.818 398.266 468.638 397.918L469.394 397.675C469.52 397.879 469.706 398.044 469.952 398.17C470.204 398.302 470.471 398.368 470.753 398.368C471.215 398.368 471.605 398.218 471.923 397.918C472.241 397.618 472.397 397.246 472.391 396.802V396.334C471.953 396.844 471.383 397.099 470.681 397.099ZM470.762 392.977C470.312 392.977 469.931 393.139 469.619 393.463C469.313 393.781 469.16 394.18 469.16 394.66C469.16 395.14 469.313 395.542 469.619 395.866C469.937 396.184 470.318 396.343 470.762 396.343C471.218 396.343 471.599 396.184 471.905 395.866C472.217 395.548 472.373 395.146 472.373 394.66C472.373 394.174 472.217 393.775 471.905 393.463C471.599 393.139 471.218 392.977 470.762 392.977Z" fill="white"/>
</g>
<defs>
<filter id="filter0_d_2_324" x="0" y="0" width="803.761" height="443" filterUnits="userSpaceOnUse" color-interpolation-filters="sRGB">
<feFlood flood-opacity="0" result="BackgroundImageFix"/>
<feColorMatrix in="SourceAlpha" type="matrix" values="0 0 0 0 0 0 0 0 0 0 0 0 0 0 0 0 0 0 127 0" result="hardAlpha"/>
<feOffset dy="4"/>
<feGaussianBlur stdDeviation="2"/>
<feComposite in2="hardAlpha" operator="out"/>
<feColorMatrix type="matrix" values="0 0 0 0 0 0 0 0 0 0 0 0 0 0 0 0 0 0 0.25 0"/>
<feBlend mode="normal" in2="BackgroundImageFix" result="effect1_dropShadow_2_324"/>
<feBlend mode="normal" in="SourceGraphic" in2="effect1_dropShadow_2_324" result="shape"/>
</filter>
<filter id="filter1_b_2_324" x="-5" y="-9" width="632" height="453" filterUnits="userSpaceOnUse" color-interpolation-filters="sRGB">
<feFlood flood-opacity="0" result="BackgroundImageFix"/>
<feGaussianBlur in="BackgroundImage" stdDeviation="4.5"/>
<feComposite in2="SourceAlpha" operator="in" result="effect1_backgroundBlur_2_324"/>
<feBlend mode="normal" in="SourceGraphic" in2="effect1_backgroundBlur_2_324" result="shape"/>
</filter>
<radialGradient id="paint0_radial_2_324" cx="0" cy="0" r="1" gradientUnits="userSpaceOnUse" gradientTransform="translate(331 183.5) rotate(92.3003) scale(236.691 334.088)">
<stop stop-color="#414f96"/>
<stop offset="1" stop-color="#605CFF" stop-opacity="0"/>
</radialGradient>
</defs>
</svg>
